<?xml version="1.0" encoding="UTF-8"?>
<!DOCTYPE svg PUBLIC "-//W3C//DTD SVG 1.1//EN" "http://www.w3.org/Graphics/SVG/1.1/DTD/svg11.dtd">
<svg xmlns="http://www.w3.org/2000/svg" version="1.1" width="1024px" height="1024px" style="shape-rendering:geometricPrecision; text-rendering:geometricPrecision; image-rendering:optimizeQuality; fill-rule:evenodd; clip-rule:evenodd" xmlns:xlink="http://www.w3.org/1999/xlink">
<g><path style="opacity:1" fill="#fcfdfd" d="M -0.5,-0.5 C 340.833,-0.5 682.167,-0.5 1023.5,-0.5C 1023.5,340.833 1023.5,682.167 1023.5,1023.5C 682.167,1023.5 340.833,1023.5 -0.5,1023.5C -0.5,682.167 -0.5,340.833 -0.5,-0.5 Z"/></g>
<g><path style="opacity:1" fill="#5faa5b" d="M 533.5,363.5 C 529.018,364.326 524.351,364.826 519.5,365C 522.817,365.498 526.15,365.665 529.5,365.5C 529.67,366.822 529.337,367.989 528.5,369C 530.228,368.647 531.894,368.481 533.5,368.5C 535.183,370.514 537.183,372.18 539.5,373.5C 541.353,374.76 543.186,374.76 545,373.5C 546.097,375.053 547.43,376.386 549,377.5C 550.625,376.588 551.459,377.255 551.5,379.5C 535.149,380.199 518.815,381.199 502.5,382.5C 502.494,381.583 503.494,381.083 505.5,381C 503.447,379.798 501.447,379.464 499.5,380C 501.255,379.28 502.089,378.113 502,376.5C 501.439,375.978 500.772,375.645 500,375.5C 498.699,376.893 497.199,377.393 495.5,377C 497.032,376.3 498.032,375.134 498.5,373.5C 495.53,373.005 493.196,371.505 491.5,369C 493.744,368.95 495.411,368.117 496.5,366.5C 508.729,364.479 521.062,363.479 533.5,363.5 Z"/></g>
<g><path style="opacity:1" fill="#66ad52" d="M 533.5,363.5 C 550.034,363.104 566.368,363.77 582.5,365.5C 581.448,365.351 580.448,365.517 579.5,366C 578.743,367.512 577.743,368.846 576.5,370C 579.079,371.729 579.079,373.562 576.5,375.5C 578.113,376.427 579.779,377.261 581.5,378C 580.167,378.333 578.833,378.667 577.5,379C 579.5,379.667 581.5,379.667 583.5,379C 582.304,378.346 582.304,377.846 583.5,377.5C 585.446,379.087 586.946,378.754 588,376.5C 588.692,377.025 589.192,377.692 589.5,378.5C 588.398,379.176 587.398,379.842 586.5,380.5C 574.841,379.945 563.174,379.612 551.5,379.5C 551.459,377.255 550.625,376.588 549,377.5C 547.43,376.386 546.097,375.053 545,373.5C 543.186,374.76 541.353,374.76 539.5,373.5C 537.183,372.18 535.183,370.514 533.5,368.5C 531.894,368.481 530.228,368.647 528.5,369C 529.337,367.989 529.67,366.822 529.5,365.5C 526.15,365.665 522.817,365.498 519.5,365C 524.351,364.826 529.018,364.326 533.5,363.5 Z"/></g>
<g><path style="opacity:1" fill="#53a663" d="M 496.5,366.5 C 495.411,368.117 493.744,368.95 491.5,369C 493.196,371.505 495.53,373.005 498.5,373.5C 498.032,375.134 497.032,376.3 495.5,377C 497.199,377.393 498.699,376.893 500,375.5C 500.772,375.645 501.439,375.978 502,376.5C 502.089,378.113 501.255,379.28 499.5,380C 501.447,379.464 503.447,379.798 505.5,381C 503.494,381.083 502.494,381.583 502.5,382.5C 494.38,384.353 486.046,385.686 477.5,386.5C 476.761,386.631 476.094,386.464 475.5,386C 477.134,385.506 478.801,385.34 480.5,385.5C 481.559,378.495 478.559,374.995 471.5,375C 472.167,373.667 473.167,372.667 474.5,372C 472.942,371.79 471.609,371.29 470.5,370.5C 479,368.353 487.667,367.02 496.5,366.5 Z"/></g>
<g><path style="opacity:1" fill="#75b54a" d="M 582.5,365.5 C 600.969,366.465 618.969,369.465 636.5,374.5C 634.408,375.894 632.742,377.728 631.5,380C 632.261,382.425 633.928,383.758 636.5,384C 634.942,384.21 633.609,384.71 632.5,385.5C 617.186,383.593 601.853,381.926 586.5,380.5C 587.398,379.842 588.398,379.176 589.5,378.5C 589.192,377.692 588.692,377.025 588,376.5C 586.946,378.754 585.446,379.087 583.5,377.5C 582.304,377.846 582.304,378.346 583.5,379C 581.5,379.667 579.5,379.667 577.5,379C 578.833,378.667 580.167,378.333 581.5,378C 579.779,377.261 578.113,376.427 576.5,375.5C 579.079,373.562 579.079,371.729 576.5,370C 577.743,368.846 578.743,367.512 579.5,366C 580.448,365.517 581.448,365.351 582.5,365.5 Z"/></g>
<g><path style="opacity:1" fill="#449b69" d="M 470.5,370.5 C 471.609,371.29 472.942,371.79 474.5,372C 473.167,372.667 472.167,373.667 471.5,375C 478.559,374.995 481.559,378.495 480.5,385.5C 478.801,385.34 477.134,385.506 475.5,386C 476.094,386.464 476.761,386.631 477.5,386.5C 468.695,388.808 459.695,390.808 450.5,392.5C 449.991,391.659 450.657,391.159 452.5,391C 451.747,389.513 450.914,389.346 450,390.5C 447.498,386.009 444.332,382.176 440.5,379C 442.119,378.764 443.119,377.931 443.5,376.5C 452.31,373.753 461.31,371.753 470.5,370.5 Z"/></g>
<g><path style="opacity:1" fill="#328f79" d="M 434.5,397.5 C 430.89,398.703 427.223,399.703 423.5,400.5C 421.345,400.628 419.345,400.128 417.5,399C 417.833,398.667 418.167,398.333 418.5,398C 416.23,395.525 413.563,393.525 410.5,392C 411.833,391.333 411.833,390.667 410.5,390C 415.843,388.058 415.51,387.225 409.5,387.5C 412.215,385.928 415.215,384.928 418.5,384.5C 424.975,382.453 430.308,384.12 434.5,389.5C 433.624,390.251 432.624,390.751 431.5,391C 432.641,391.741 432.641,392.575 431.5,393.5C 432.524,394.852 433.524,396.185 434.5,397.5 Z"/></g>
<g><path style="opacity:1" fill="#3c9977" d="M 443.5,376.5 C 443.119,377.931 442.119,378.764 440.5,379C 444.332,382.176 447.498,386.009 450,390.5C 450.914,389.346 451.747,389.513 452.5,391C 450.657,391.159 449.991,391.659 450.5,392.5C 445.36,394.457 440.027,396.124 434.5,397.5C 433.524,396.185 432.524,394.852 431.5,393.5C 432.641,392.575 432.641,391.741 431.5,391C 432.624,390.751 433.624,390.251 434.5,389.5C 430.308,384.12 424.975,382.453 418.5,384.5C 426.492,381.059 434.825,378.393 443.5,376.5 Z"/></g>
<g><path style="opacity:1" fill="#2d8c82" d="M 409.5,387.5 C 415.51,387.225 415.843,388.058 410.5,390C 411.833,390.667 411.833,391.333 410.5,392C 413.563,393.525 416.23,395.525 418.5,398C 418.167,398.333 417.833,398.667 417.5,399C 419.345,400.128 421.345,400.628 423.5,400.5C 415.825,403.284 408.158,406.284 400.5,409.5C 399.469,408.751 398.302,408.085 397,407.5C 395.951,408.517 394.784,408.684 393.5,408C 396.033,406.967 397.699,405.133 398.5,402.5C 396.479,399.765 394.479,397.099 392.5,394.5C 397.756,391.378 403.423,389.045 409.5,387.5 Z"/></g>
<g><path style="opacity:1" fill="#2a878d" d="M 392.5,394.5 C 394.479,397.099 396.479,399.765 398.5,402.5C 397.699,405.133 396.033,406.967 393.5,408C 394.784,408.684 395.951,408.517 397,407.5C 398.302,408.085 399.469,408.751 400.5,409.5C 397.171,410.831 393.838,412.164 390.5,413.5C 389.732,410.599 388.732,407.766 387.5,405C 387.833,404.667 388.167,404.333 388.5,404C 385.802,400.362 382.469,399.195 378.5,400.5C 382.877,397.982 387.544,395.982 392.5,394.5 Z"/></g>
<g><path style="opacity:1" fill="#87be41" d="M 636.5,374.5 C 675.707,383.442 712.041,398.942 745.5,421C 709.635,403.881 671.968,392.047 632.5,385.5C 633.609,384.71 634.942,384.21 636.5,384C 633.928,383.758 632.261,382.425 631.5,380C 632.742,377.728 634.408,375.894 636.5,374.5 Z"/></g>
<g><path style="opacity:1" fill="#247d8d" d="M 390.5,413.5 C 387.833,414.833 385.167,416.167 382.5,417.5C 381.721,415.073 380.554,415.073 379,417.5C 376.904,416.285 377.071,415.451 379.5,415C 378.54,413.581 377.707,412.081 377,410.5C 376.333,409.167 375.667,409.167 375,410.5C 375.175,407.182 373.675,405.182 370.5,404.5C 372.849,402.659 375.515,401.326 378.5,400.5C 382.469,399.195 385.802,400.362 388.5,404C 388.167,404.333 387.833,404.667 387.5,405C 388.732,407.766 389.732,410.599 390.5,413.5 Z"/></g>
<g><path style="opacity:1" fill="#227894" d="M 370.5,404.5 C 373.675,405.182 375.175,407.182 375,410.5C 375.667,409.167 376.333,409.167 377,410.5C 377.707,412.081 378.54,413.581 379.5,415C 377.071,415.451 376.904,416.285 379,417.5C 380.554,415.073 381.721,415.073 382.5,417.5C 377.375,419.562 372.375,421.896 367.5,424.5C 368.692,418.255 366.025,413.588 359.5,410.5C 362.999,408.25 366.665,406.25 370.5,404.5 Z"/></g>
<g><path style="opacity:1" fill="#21729c" d="M 359.5,410.5 C 366.025,413.588 368.692,418.255 367.5,424.5C 362.807,426.847 358.14,429.18 353.5,431.5C 351.413,429.078 349.413,426.578 347.5,424C 348.167,422.667 348.833,421.333 349.5,420C 347.153,419.666 344.819,419.833 342.5,420.5C 347.665,416.414 353.332,413.08 359.5,410.5 Z"/></g>
<g><path style="opacity:1" fill="#55d4c4" d="M 677.5,345.5 C 693.467,345.725 699.634,353.725 696,369.5C 714.686,385.688 733.52,401.688 752.5,417.5C 760.066,413.121 766.899,414.121 773,420.5C 777.707,429.699 775.873,437.199 767.5,443C 765.26,443.977 762.927,444.477 760.5,444.5C 758.671,456.459 757.505,468.459 757,480.5C 766.718,486.334 769.052,494.334 764,504.5C 757.709,510.904 750.542,512.07 742.5,508C 737.946,503.228 735.613,497.561 735.5,491C 717.833,484.667 700.167,478.333 682.5,472C 681.253,470.506 681.253,469.006 682.5,467.5C 700.848,474.591 719.348,481.258 738,487.5C 741.639,482.695 746.472,480.362 752.5,480.5C 754.437,468.555 755.603,456.555 756,444.5C 744.957,438.531 742.791,430.198 749.5,419.5C 730.687,403.854 712.02,388.021 693.5,372C 690.973,372.911 688.306,373.911 685.5,375C 683.19,375.497 680.857,375.663 678.5,375.5C 678.5,376.5 678.5,377.5 678.5,378.5C 677.167,378.5 675.833,378.5 674.5,378.5C 674.5,377.167 674.5,375.833 674.5,374.5C 672.401,375.231 670.401,375.231 668.5,374.5C 670.694,371.595 670.361,368.762 667.5,366C 660.103,365.977 652.769,366.81 645.5,368.5C 642.519,368.561 639.852,367.728 637.5,366C 647.128,364.174 656.795,362.674 666.5,361.5C 667.201,354.09 670.868,348.757 677.5,345.5 Z"/></g>
<g><path style="opacity:1" fill="#f9fdfb" d="M 757.5,420.5 C 766.478,420.31 770.311,424.643 769,433.5C 766.459,438.069 762.625,439.569 757.5,438C 752.845,435.103 751.345,430.937 753,425.5C 754.193,423.503 755.693,421.836 757.5,420.5 Z"/></g>
<g><path style="opacity:1" fill="#f8fdfb" d="M 679.5,351.5 C 687.523,351.683 691.023,355.683 690,363.5C 687.647,368.426 683.814,370.26 678.5,369C 673.845,366.103 672.345,361.937 674,356.5C 675.406,354.256 677.239,352.59 679.5,351.5 Z"/></g>
<g><path style="opacity:1" fill="#1f5e94" d="M 353.5,431.5 C 343.838,437.492 334.172,443.492 324.5,449.5C 323.342,448.05 323.842,447.05 326,446.5C 326.808,444.421 326.641,442.421 325.5,440.5C 323.751,443.127 322.084,443.127 320.5,440.5C 322.318,439.226 323.985,437.726 325.5,436C 324.934,435.005 324.267,434.172 323.5,433.5C 329.536,428.809 335.869,424.475 342.5,420.5C 344.819,419.833 347.153,419.666 349.5,420C 348.833,421.333 348.167,422.667 347.5,424C 349.413,426.578 351.413,429.078 353.5,431.5 Z"/></g>
<g><path style="opacity:1" fill="#52d5c8" d="M 668.5,400.5 C 669.693,400.97 670.36,401.97 670.5,403.5C 667.029,415.716 664.029,428.049 661.5,440.5C 660.167,440.5 658.833,440.5 657.5,440.5C 660.547,426.975 664.214,413.642 668.5,400.5 Z"/></g>
<g><path style="opacity:1" fill="#48d8cc" d="M 650.5,396.5 C 651.978,396.238 653.311,396.571 654.5,397.5C 643.728,411.109 632.394,424.276 620.5,437C 619.167,437.667 617.833,437.667 616.5,437C 628.044,423.627 639.378,410.127 650.5,396.5 Z"/></g>
<g><path style="opacity:1" fill="#20518d" d="M 323.5,433.5 C 324.267,434.172 324.934,435.005 325.5,436C 323.985,437.726 322.318,439.226 320.5,440.5C 322.084,443.127 323.751,443.127 325.5,440.5C 326.641,442.421 326.808,444.421 326,446.5C 323.842,447.05 323.342,448.05 324.5,449.5C 318.81,454.518 312.81,459.185 306.5,463.5C 306.357,461.738 306.691,460.071 307.5,458.5C 305.587,457.949 303.587,457.782 301.5,458C 303.572,456.727 304.905,454.893 305.5,452.5C 304.643,451.575 303.643,450.908 302.5,450.5C 309.186,444.484 316.186,438.818 323.5,433.5 Z"/></g>
<g><path style="opacity:1" fill="#89c23e" d="M 639.5,488.5 C 640.152,484.44 638.485,482.44 634.5,482.5C 633.313,480.095 631.813,477.761 630,475.5C 629,475.833 628,476.167 627,476.5C 626.333,475.167 625.667,473.833 625,472.5C 623.97,474.776 622.47,475.443 620.5,474.5C 621.376,473.749 622.376,473.249 623.5,473C 618.709,469.549 615.042,465.215 612.5,460C 611.234,459.691 610.067,459.191 609,458.5C 608.667,458.833 608.333,459.167 608,459.5C 607.667,457.833 607.333,456.167 607,454.5C 605.512,456.16 603.679,457.16 601.5,457.5C 617.522,441.753 635.855,438.586 656.5,448C 667.513,455.19 673.513,465.356 674.5,478.5C 661.239,476.591 649.572,479.924 639.5,488.5 Z"/></g>
<g><path style="opacity:1" fill="#7ab943" d="M 639.5,488.5 C 636.527,490.806 633.86,493.473 631.5,496.5C 629.856,496.714 628.356,496.38 627,495.5C 626.333,496.167 625.667,496.833 625,497.5C 622.369,497.239 619.869,495.905 617.5,493.5C 612.42,496.549 608.92,495.215 607,489.5C 606.333,490.833 605.667,490.833 605,489.5C 604.667,488.167 604.333,486.833 604,485.5C 603.692,486.308 603.192,486.975 602.5,487.5C 601.167,486.167 599.833,484.833 598.5,483.5C 596.851,483.075 595.017,483.075 593,483.5C 591.748,481.999 590.748,480.332 590,478.5C 589.043,480.709 587.876,480.543 586.5,478C 587.171,477.014 587.171,475.847 586.5,474.5C 591.157,468.511 596.157,462.844 601.5,457.5C 603.679,457.16 605.512,456.16 607,454.5C 607.333,456.167 607.667,457.833 608,459.5C 608.333,459.167 608.667,458.833 609,458.5C 610.067,459.191 611.234,459.691 612.5,460C 615.042,465.215 618.709,469.549 623.5,473C 622.376,473.249 621.376,473.749 620.5,474.5C 622.47,475.443 623.97,474.776 625,472.5C 625.667,473.833 626.333,475.167 627,476.5C 628,476.167 629,475.833 630,475.5C 631.813,477.761 633.313,480.095 634.5,482.5C 638.485,482.44 640.152,484.44 639.5,488.5 Z"/></g>
<g><path style="opacity:1" fill="#1a84b4" d="M 425.5,459.5 C 415.494,459.666 405.494,459.5 395.5,459C 400.16,453.349 405.827,449.182 412.5,446.5C 414.144,446.714 415.644,446.38 417,445.5C 417.791,447.604 419.291,448.937 421.5,449.5C 422.24,452.618 423.906,455.618 426.5,458.5C 426.376,459.107 426.043,459.44 425.5,459.5 Z"/></g>
<g><path style="opacity:1" fill="#51d3c9" d="M 545.5,386.5 C 547.833,386.5 550.167,386.5 552.5,386.5C 552.009,391.446 550.843,396.113 549,400.5C 562.38,415.043 575.547,429.71 588.5,444.5C 593.357,441.098 598.357,440.765 603.5,443.5C 600.555,446.608 596.888,448.441 592.5,449C 590.032,451.228 588.865,454.062 589,457.5C 587.667,458.833 586.333,460.167 585,461.5C 583.731,460.095 583.231,458.429 583.5,456.5C 564.5,456.5 545.5,456.5 526.5,456.5C 525.259,460.273 524.092,463.94 523,467.5C 536.602,484.938 550.768,501.938 565.5,518.5C 575.08,514.528 582.246,517.195 587,526.5C 588.679,533.967 586.513,539.967 580.5,544.5C 592.833,571.833 605.167,599.167 617.5,626.5C 632.577,625.739 639.077,632.739 637,647.5C 633.167,655.122 627.001,657.955 618.5,656C 610.436,652.371 607.269,646.205 609,637.5C 610.455,634.387 612.288,631.554 614.5,629C 602.115,601.067 589.615,573.233 577,545.5C 574,546.167 571,546.833 568,547.5C 561.971,561.725 555.804,575.892 549.5,590C 557.006,597.702 557.339,605.702 550.5,614C 534.115,621.304 525.115,615.971 523.5,598C 494.144,585.904 464.977,573.404 436,560.5C 431.666,567.283 425.499,569.783 417.5,568C 408.199,562.762 405.699,555.262 410,545.5C 415.903,538.48 423.07,536.647 431.5,540C 454,515.5 476.5,491 499,466.5C 492.766,450.299 498.266,441.299 515.5,439.5C 520.037,426.93 524.704,414.43 529.5,402C 524.376,398.589 521.709,393.756 521.5,387.5C 523.5,387.5 525.5,387.5 527.5,387.5C 529.634,397.649 535.134,399.982 544,394.5C 545.252,391.986 545.752,389.32 545.5,386.5 Z"/></g>
<g><path style="opacity:1" fill="#f8fcfa" d="M 508.5,446.5 C 519.869,447.008 522.869,452.174 517.5,462C 507.768,465.899 502.935,462.732 503,452.5C 504.36,449.977 506.193,447.977 508.5,446.5 Z"/></g>
<g><path style="opacity:1" fill="#fbfdfc" d="M 543.5,401.5 C 546.056,402.543 548.223,404.21 550,406.5C 561.276,420.279 573.11,433.613 585.5,446.5C 584.399,448.642 583.399,450.808 582.5,453C 563.836,453.5 545.17,453.667 526.5,453.5C 525.704,448.191 523.038,444.025 518.5,441C 523.26,428.889 527.927,416.723 532.5,404.5C 536.408,403.905 540.074,402.905 543.5,401.5 Z"/></g>
<g><path style="opacity:1" fill="#224588" d="M 302.5,450.5 C 303.643,450.908 304.643,451.575 305.5,452.5C 304.905,454.893 303.572,456.727 301.5,458C 303.587,457.782 305.587,457.949 307.5,458.5C 306.691,460.071 306.357,461.738 306.5,463.5C 298.987,470.08 291.32,476.413 283.5,482.5C 282.209,481.458 282.209,480.292 283.5,479C 282.833,478.333 282.167,477.667 281.5,477C 282.676,475.326 284.01,473.826 285.5,472.5C 284.311,471.571 282.978,471.238 281.5,471.5C 288.167,464.167 295.167,457.167 302.5,450.5 Z"/></g>
<g><path style="opacity:1" fill="#f9fbfa" d="M 492.5,579.5 C 493.66,567.007 493.827,554.34 493,541.5C 491.609,535.942 488.109,532.609 482.5,531.5C 471.162,531.333 459.828,531.5 448.5,532C 445.961,534.37 443.628,536.87 441.5,539.5C 440.71,540.794 439.71,541.961 438.5,543C 441.198,547.773 442.198,552.939 441.5,558.5C 440.178,558.67 439.011,558.337 438,557.5C 437.794,551.894 436.794,546.56 435,541.5C 457.684,516.983 480.184,492.316 502.5,467.5C 503.912,468.806 505.579,469.64 507.5,470C 511.516,470.186 515.516,470.186 519.5,470C 533.292,486.795 547.459,503.295 562,519.5C 561.358,521.807 560.358,524.141 559,526.5C 557.321,533.967 559.487,539.967 565.5,544.5C 558.833,559.167 552.167,573.833 545.5,588.5C 542.227,587.415 538.894,587.248 535.5,588C 532.008,590.006 528.674,592.172 525.5,594.5C 516.058,590.946 506.724,587.113 497.5,583C 495.416,582.303 493.749,581.136 492.5,579.5 Z"/></g>
<g><path style="opacity:1" fill="#1a9bbd" d="M 420.5,444.5 C 433.351,442.207 445.351,444.707 456.5,452C 465.755,461.364 474.422,471.197 482.5,481.5C 479.116,485.213 475.783,488.879 472.5,492.5C 473.052,490.669 473.052,489.003 472.5,487.5C 473.025,486.808 473.692,486.308 474.5,486C 473.62,484.644 473.286,483.144 473.5,481.5C 472.07,481.579 470.736,481.246 469.5,480.5C 466.491,477.158 463.157,474.158 459.5,471.5C 459.167,472.167 458.833,472.833 458.5,473.5C 452.735,470.34 448.235,465.34 445,458.5C 444.586,458.957 444.086,459.291 443.5,459.5C 442.937,457.291 441.604,455.791 439.5,455C 439.833,454.667 440.167,454.333 440.5,454C 439.451,453.508 438.451,453.674 437.5,454.5C 436.667,453.5 435.833,452.5 435,451.5C 434.667,452.167 434.333,452.833 434,453.5C 433.365,452.034 432.531,450.7 431.5,449.5C 432.718,448.197 432.385,447.197 430.5,446.5C 431.025,445.808 431.692,445.308 432.5,445C 428.514,444.501 424.514,444.334 420.5,444.5 Z"/></g>
<g><path style="opacity:1" fill="#399abf" d="M 382.5,472.5 C 395.994,471.339 409.66,471.173 423.5,472C 428.428,473.927 431.594,477.427 433,482.5C 433.829,500.005 433.662,517.338 432.5,534.5C 432.5,528.167 432.5,521.833 432.5,515.5C 432.5,512.833 432.5,510.167 432.5,507.5C 432.666,500.492 432.5,493.492 432,486.5C 431.667,489.833 431.333,493.167 431,496.5C 427.317,495.126 425.651,492.459 426,488.5C 425.147,490.125 424.147,490.458 423,489.5C 422.667,487.5 422.333,485.5 422,483.5C 421.333,484.833 420.667,484.833 420,483.5C 420.564,479.21 418.731,477.043 414.5,477C 415.38,475.644 415.714,474.144 415.5,472.5C 408.167,472.5 400.833,472.5 393.5,472.5C 389.833,472.5 386.167,472.5 382.5,472.5 Z"/></g>
<g><path style="opacity:1" fill="#198fb8" d="M 420.5,444.5 C 424.514,444.334 428.514,444.501 432.5,445C 431.692,445.308 431.025,445.808 430.5,446.5C 432.385,447.197 432.718,448.197 431.5,449.5C 432.531,450.7 433.365,452.034 434,453.5C 434.333,452.833 434.667,452.167 435,451.5C 435.833,452.5 436.667,453.5 437.5,454.5C 438.451,453.674 439.451,453.508 440.5,454C 440.167,454.333 439.833,454.667 439.5,455C 441.604,455.791 442.937,457.291 443.5,459.5C 444.086,459.291 444.586,458.957 445,458.5C 448.235,465.34 452.735,470.34 458.5,473.5C 458.833,472.833 459.167,472.167 459.5,471.5C 463.157,474.158 466.491,477.158 469.5,480.5C 470.736,481.246 472.07,481.579 473.5,481.5C 473.286,483.144 473.62,484.644 474.5,486C 473.692,486.308 473.025,486.808 472.5,487.5C 473.052,489.003 473.052,490.669 472.5,492.5C 470.5,495.167 468.167,497.5 465.5,499.5C 465.297,497.61 465.963,496.11 467.5,495C 465.702,495.006 464.035,495.339 462.5,496C 460.622,494.009 458.622,492.176 456.5,490.5C 455.571,489.311 455.238,487.978 455.5,486.5C 454.448,486.649 453.448,486.483 452.5,486C 453.451,485.282 453.617,484.449 453,483.5C 451.192,483.888 449.525,483.888 448,483.5C 447.692,482.692 447.192,482.025 446.5,481.5C 445.502,489.807 445.169,498.14 445.5,506.5C 444.929,495.937 444.096,485.27 443,474.5C 439.218,467.037 433.384,462.037 425.5,459.5C 426.043,459.44 426.376,459.107 426.5,458.5C 423.906,455.618 422.24,452.618 421.5,449.5C 419.291,448.937 417.791,447.604 417,445.5C 415.644,446.38 414.144,446.714 412.5,446.5C 414.838,444.96 417.505,444.294 420.5,444.5 Z"/></g>
<g><path style="opacity:1" fill="#1789b6" d="M 393.5,472.5 C 400.833,472.5 408.167,472.5 415.5,472.5C 415.714,474.144 415.38,475.644 414.5,477C 418.731,477.043 420.564,479.21 420,483.5C 420.667,484.833 421.333,484.833 422,483.5C 422.333,485.5 422.667,487.5 423,489.5C 424.147,490.458 425.147,490.125 426,488.5C 425.651,492.459 427.317,495.126 431,496.5C 431.333,493.167 431.667,489.833 432,486.5C 432.5,493.492 432.666,500.492 432.5,507.5C 431.839,508.718 431.172,510.051 430.5,511.5C 427.923,511.34 426.09,509.673 425,506.5C 421.265,505.865 418.098,503.699 415.5,500C 415.833,499.667 416.167,499.333 416.5,499C 414.5,498.667 412.5,498.333 410.5,498C 411.308,497.692 411.975,497.192 412.5,496.5C 409.461,492.794 406.128,489.294 402.5,486C 400.481,485.55 398.648,484.717 397,483.5C 395.901,480.136 394.401,476.97 392.5,474C 393.056,473.617 393.389,473.117 393.5,472.5 Z"/></g>
<g><path style="opacity:1" fill="#6fb54e" d="M 586.5,474.5 C 587.171,475.847 587.171,477.014 586.5,478C 587.876,480.543 589.043,480.709 590,478.5C 590.748,480.332 591.748,481.999 593,483.5C 595.017,483.075 596.851,483.075 598.5,483.5C 599.833,484.833 601.167,486.167 602.5,487.5C 603.192,486.975 603.692,486.308 604,485.5C 604.333,486.833 604.667,488.167 605,489.5C 605.667,490.833 606.333,490.833 607,489.5C 608.92,495.215 612.42,496.549 617.5,493.5C 619.869,495.905 622.369,497.239 625,497.5C 625.667,496.833 626.333,496.167 627,495.5C 628.356,496.38 629.856,496.714 631.5,496.5C 625.472,502.86 619.472,509.193 613.5,515.5C 613.083,514.876 612.416,514.543 611.5,514.5C 610.259,515.037 609.092,515.704 608,516.5C 605.667,515.167 603.333,513.833 601,512.5C 600.228,512.645 599.561,512.978 599,513.5C 597.48,509.648 594.647,507.815 590.5,508C 589.953,507.075 589.287,506.242 588.5,505.5C 587.468,507.04 586.135,507.54 584.5,507C 583.743,505.488 582.743,504.154 581.5,503C 581.833,502.667 582.167,502.333 582.5,502C 580.082,501.085 578.082,499.585 576.5,497.5C 575.167,497.833 573.833,498.167 572.5,498.5C 570.069,497.194 570.403,496.194 573.5,495.5C 574.428,494.232 574.595,492.899 574,491.5C 573.023,492.774 572.189,492.774 571.5,491.5C 576.157,485.511 581.157,479.844 586.5,474.5 Z"/></g>
<g><path style="opacity:1" fill="#f8fcfa" d="M 748.5,486.5 C 757.658,485.491 761.492,489.491 760,498.5C 753.948,506.631 748.281,506.297 743,497.5C 742.71,492.746 744.544,489.08 748.5,486.5 Z"/></g>
<g><path style="opacity:1" fill="#26387f" d="M 281.5,471.5 C 282.978,471.238 284.311,471.571 285.5,472.5C 284.01,473.826 282.676,475.326 281.5,477C 282.167,477.667 282.833,478.333 283.5,479C 282.209,480.292 282.209,481.458 283.5,482.5C 261.388,503.771 242.888,527.771 228,554.5C 227.346,555.696 226.846,555.696 226.5,554.5C 239.11,522.919 257.444,495.253 281.5,471.5 Z"/></g>
<g><path style="opacity:1" fill="#187faf" d="M 380.5,473.5 C 380.842,472.662 381.508,472.328 382.5,472.5C 386.167,472.5 389.833,472.5 393.5,472.5C 393.389,473.117 393.056,473.617 392.5,474C 394.401,476.97 395.901,480.136 397,483.5C 398.648,484.717 400.481,485.55 402.5,486C 406.128,489.294 409.461,492.794 412.5,496.5C 411.975,497.192 411.308,497.692 410.5,498C 412.5,498.333 414.5,498.667 416.5,499C 416.167,499.333 415.833,499.667 415.5,500C 418.098,503.699 421.265,505.865 425,506.5C 426.09,509.673 427.923,511.34 430.5,511.5C 431.172,510.051 431.839,508.718 432.5,507.5C 432.5,510.167 432.5,512.833 432.5,515.5C 431.676,519.312 431.176,523.312 431,527.5C 428.661,525.86 427.828,523.86 428.5,521.5C 427.41,519.997 426.243,519.664 425,520.5C 423.242,519.531 422.742,518.364 423.5,517C 422.234,516.691 421.067,516.191 420,515.5C 418.636,516.258 417.469,515.758 416.5,514C 417.451,513.282 417.617,512.449 417,511.5C 416.085,512.328 415.419,513.328 415,514.5C 413.887,513.24 413.72,512.073 414.5,511C 413.5,510.667 412.5,510.333 411.5,510C 412.458,508.853 412.125,507.853 410.5,507C 411.167,506.667 411.833,506.333 412.5,506C 409.303,504.176 406.637,501.843 404.5,499C 405.956,498.577 406.456,497.744 406,496.5C 404.181,498.536 402.347,498.703 400.5,497C 400.957,496.586 401.291,496.086 401.5,495.5C 398.582,492.206 394.915,490.206 390.5,489.5C 391.376,488.749 392.376,488.249 393.5,488C 392.107,486.829 391.273,485.329 391,483.5C 390.333,482.167 389.667,482.167 389,483.5C 388.383,482.551 388.549,481.718 389.5,481C 388.062,480.781 386.729,480.281 385.5,479.5C 385.709,478.914 386.043,478.414 386.5,478C 384.963,476.89 384.297,475.39 384.5,473.5C 383.167,473.5 381.833,473.5 380.5,473.5 Z"/></g>
<g><path style="opacity:1" fill="#85c13d" d="M 674.5,490.5 C 674.5,494.5 674.5,498.5 674.5,502.5C 672.876,502.36 671.71,503.027 671,504.5C 670.586,504.043 670.086,503.709 669.5,503.5C 666.982,505.464 664.316,506.13 661.5,505.5C 659.705,503.297 657.371,502.131 654.5,502C 654.833,501.667 655.167,501.333 655.5,501C 653.658,499.656 651.992,498.156 650.5,496.5C 649.167,497.5 647.833,498.5 646.5,499.5C 645.893,499.376 645.56,499.043 645.5,498.5C 653.693,491.104 663.36,488.437 674.5,490.5 Z"/></g>
<g><path style="opacity:1" fill="#1c79ab" d="M 465.5,499.5 C 461.534,504.801 457.2,509.801 452.5,514.5C 449.405,512.411 447.071,509.744 445.5,506.5C 445.169,498.14 445.502,489.807 446.5,481.5C 447.192,482.025 447.692,482.692 448,483.5C 449.525,483.888 451.192,483.888 453,483.5C 453.617,484.449 453.451,485.282 452.5,486C 453.448,486.483 454.448,486.649 455.5,486.5C 455.238,487.978 455.571,489.311 456.5,490.5C 458.622,492.176 460.622,494.009 462.5,496C 464.035,495.339 465.702,495.006 467.5,495C 465.963,496.11 465.297,497.61 465.5,499.5 Z"/></g>
<g><path style="opacity:1" fill="#7dbb41" d="M 674.5,490.5 C 675.496,506.658 675.83,522.991 675.5,539.5C 675.167,539.5 674.833,539.5 674.5,539.5C 671.317,537.596 667.984,537.096 664.5,538C 664.833,537.667 665.167,537.333 665.5,537C 663.606,535.899 662.939,534.566 663.5,533C 660.02,533.288 656.687,532.288 653.5,530C 653.833,529.667 654.167,529.333 654.5,529C 653.167,528.333 651.833,528.333 650.5,529C 651.654,529.914 651.487,530.747 650,531.5C 648.266,529.549 646.099,528.549 643.5,528.5C 643.439,525.27 641.772,523.437 638.5,523C 638.833,522.667 639.167,522.333 639.5,522C 638.5,521.333 637.5,521.333 636.5,522C 637.888,522.889 637.722,523.389 636,523.5C 632.061,520.394 631.895,516.894 635.5,513C 634.748,512.329 634.414,511.496 634.5,510.5C 637.458,505.874 641.124,501.874 645.5,498.5C 645.56,499.043 645.893,499.376 646.5,499.5C 647.833,498.5 649.167,497.5 650.5,496.5C 651.992,498.156 653.658,499.656 655.5,501C 655.167,501.333 654.833,501.667 654.5,502C 657.371,502.131 659.705,503.297 661.5,505.5C 664.316,506.13 666.982,505.464 669.5,503.5C 670.086,503.709 670.586,504.043 671,504.5C 671.71,503.027 672.876,502.36 674.5,502.5C 674.5,498.5 674.5,494.5 674.5,490.5 Z"/></g>
<g><path style="opacity:1" fill="#1b96bb" d="M 550.5,572.5 C 549.246,576.176 547.579,579.676 545.5,583C 542.183,583.498 538.85,583.665 535.5,583.5C 537.292,582.691 539.292,582.191 541.5,582C 539.699,581.683 539.366,581.016 540.5,580C 538.559,579.257 536.726,579.424 535,580.5C 533.155,576.205 531.988,571.872 531.5,567.5C 530.086,566.376 528.586,565.376 527,564.5C 525.334,565.34 525.167,564.84 526.5,563C 524.888,562.28 523.388,562.446 522,563.5C 521.316,562.216 521.483,561.049 522.5,560C 520.25,559.389 518.583,558.056 517.5,556C 518.261,553.821 517.928,551.655 516.5,549.5C 513.151,548.17 512.818,548.67 515.5,551C 514.874,551.75 514.374,552.584 514,553.5C 511.16,551.049 510.994,548.549 513.5,546C 512.328,545.647 511.162,545.813 510,546.5C 509.05,545.978 508.216,545.311 507.5,544.5C 506.914,544.709 506.414,545.043 506,545.5C 505.5,557.162 505.333,568.829 505.5,580.5C 504.669,566.006 504.169,551.339 504,536.5C 501.538,529.041 496.705,523.874 489.5,521C 479.873,519.941 470.206,519.107 460.5,518.5C 465.179,512.491 470.179,506.825 475.5,501.5C 477.598,500.037 479.598,500.204 481.5,502C 485.359,504.228 488.692,507.061 491.5,510.5C 493.541,511.236 495.541,512.069 497.5,513C 498.833,514.333 498.833,515.667 497.5,517C 498.784,517.684 499.951,517.517 501,516.5C 502.112,519.278 503.945,521.445 506.5,523C 504.595,523.826 504.261,524.993 505.5,526.5C 508.413,527.202 511.413,527.702 514.5,528C 513.239,529.991 513.239,532.491 514.5,535.5C 516.936,535.317 519.103,535.984 521,537.5C 521.333,537.167 521.667,536.833 522,536.5C 524.811,540.005 527.477,543.672 530,547.5C 530.14,550.043 530.806,552.377 532,554.5C 533.516,551.949 534.349,552.282 534.5,555.5C 535.822,555.67 536.989,555.337 538,554.5C 538.483,555.448 538.649,556.448 538.5,557.5C 539.5,557.5 540.5,557.5 541.5,557.5C 541.891,562.296 543.224,566.796 545.5,571C 545.833,571.167 546.167,571.333 546.5,571.5C 547.613,568.523 549.613,567.023 552.5,567C 549.906,568.32 549.24,570.153 550.5,572.5 Z"/></g>
<g><path style="opacity:1" fill="#66af57" d="M 571.5,491.5 C 572.189,492.774 573.023,492.774 574,491.5C 574.595,492.899 574.428,494.232 573.5,495.5C 570.403,496.194 570.069,497.194 572.5,498.5C 573.833,498.167 575.167,497.833 576.5,497.5C 578.082,499.585 580.082,501.085 582.5,502C 582.167,502.333 581.833,502.667 581.5,503C 582.743,504.154 583.743,505.488 584.5,507C 586.135,507.54 587.468,507.04 588.5,505.5C 589.287,506.242 589.953,507.075 590.5,508C 594.647,507.815 597.48,509.648 599,513.5C 599.561,512.978 600.228,512.645 601,512.5C 603.333,513.833 605.667,515.167 608,516.5C 609.092,515.704 610.259,515.037 611.5,514.5C 612.416,514.543 613.083,514.876 613.5,515.5C 605.937,525.238 597.771,534.571 589,543.5C 591.129,539.413 592.296,534.913 592.5,530C 589.779,515.043 580.945,509.543 566,513.5C 563.29,511.288 561.123,508.621 559.5,505.5C 563.178,500.494 567.178,495.827 571.5,491.5 Z"/></g>
<g><path style="opacity:1" fill="#79b947" d="M 634.5,510.5 C 634.414,511.496 634.748,512.329 635.5,513C 631.895,516.894 632.061,520.394 636,523.5C 637.722,523.389 637.888,522.889 636.5,522C 637.5,521.333 638.5,521.333 639.5,522C 639.167,522.333 638.833,522.667 638.5,523C 641.772,523.437 643.439,525.27 643.5,528.5C 646.099,528.549 648.266,529.549 650,531.5C 651.487,530.747 651.654,529.914 650.5,529C 651.833,528.333 653.167,528.333 654.5,529C 654.167,529.333 653.833,529.667 653.5,530C 656.687,532.288 660.02,533.288 663.5,533C 662.939,534.566 663.606,535.899 665.5,537C 665.167,537.333 664.833,537.667 664.5,538C 667.984,537.096 671.317,537.596 674.5,539.5C 674.827,544.544 674.494,549.544 673.5,554.5C 672.5,553.167 671.5,553.167 670.5,554.5C 670.64,553.431 670.64,552.264 670.5,551C 669.258,550.689 668.258,551.189 667.5,552.5C 665.146,548.484 661.813,546.984 657.5,548C 658.517,546.951 658.684,545.784 658,544.5C 656.865,544.273 655.698,543.94 654.5,543.5C 655.025,542.808 655.692,542.308 656.5,542C 654.919,541.293 653.419,540.46 652,539.5C 651.577,540.956 650.744,541.456 649.5,541C 644.585,536.756 640.419,531.923 637,526.5C 635.732,526.616 634.398,526.949 633,527.5C 631.605,525.86 630.105,524.36 628.5,523C 629.554,521.612 629.72,520.112 629,518.5C 627.961,519.71 626.794,520.71 625.5,521.5C 625.5,521.167 625.5,520.833 625.5,520.5C 627.788,516.544 630.788,513.211 634.5,510.5 Z"/></g>
<g><path style="opacity:1" fill="#73b449" d="M 674.5,539.5 C 674.833,539.5 675.167,539.5 675.5,539.5C 675.5,546.833 675.5,554.167 675.5,561.5C 674.539,563.265 674.205,565.265 674.5,567.5C 672.508,567.672 670.842,567.005 669.5,565.5C 668.575,566.641 667.741,566.641 667,565.5C 666.667,566.167 666.333,566.833 666,567.5C 665.316,563.907 663.816,563.573 661.5,566.5C 659.259,564.761 657.592,562.594 656.5,560C 655.551,559.383 654.718,559.549 654,560.5C 653.935,558.117 653.102,557.45 651.5,558.5C 649.866,558.032 648.7,557.032 648,555.5C 647.692,556.308 647.192,556.975 646.5,557.5C 645.034,555.179 643.201,553.179 641,551.5C 640.333,552.167 639.667,552.833 639,553.5C 636.778,549.612 633.612,546.779 629.5,545C 630.574,544.261 631.241,543.261 631.5,542C 629.421,538.766 627.921,535.266 627,531.5C 626.768,532.737 626.268,533.737 625.5,534.5C 625.5,530.167 625.5,525.833 625.5,521.5C 626.794,520.71 627.961,519.71 629,518.5C 629.72,520.112 629.554,521.612 628.5,523C 630.105,524.36 631.605,525.86 633,527.5C 634.398,526.949 635.732,526.616 637,526.5C 640.419,531.923 644.585,536.756 649.5,541C 650.744,541.456 651.577,540.956 652,539.5C 653.419,540.46 654.919,541.293 656.5,542C 655.692,542.308 655.025,542.808 654.5,543.5C 655.698,543.94 656.865,544.273 658,544.5C 658.684,545.784 658.517,546.951 657.5,548C 661.813,546.984 665.146,548.484 667.5,552.5C 668.258,551.189 669.258,550.689 670.5,551C 670.64,552.264 670.64,553.431 670.5,554.5C 671.5,553.167 672.5,553.167 673.5,554.5C 674.494,549.544 674.827,544.544 674.5,539.5 Z"/></g>
<g><path style="opacity:1" fill="#5aa560" d="M 550.5,514.5 C 553.506,515.639 555.506,517.806 556.5,521C 555.199,524.262 554.199,527.596 553.5,531C 554.707,536.248 556.873,541.081 560,545.5C 560.884,547.641 560.384,549.307 558.5,550.5C 551.492,543.492 544.826,536.158 538.5,528.5C 542.148,523.519 546.148,518.853 550.5,514.5 Z"/></g>
<g><path style="opacity:1" fill="#f8fbf9" d="M 569.5,522.5 C 580.039,521.915 583.539,526.581 580,536.5C 574.431,542.174 569.431,541.84 565,535.5C 563.379,529.923 564.879,525.589 569.5,522.5 Z"/></g>
<g><path style="opacity:1" fill="#1874a7" d="M 380.5,473.5 C 381.833,473.5 383.167,473.5 384.5,473.5C 384.297,475.39 384.963,476.89 386.5,478C 386.043,478.414 385.709,478.914 385.5,479.5C 386.729,480.281 388.062,480.781 389.5,481C 388.549,481.718 388.383,482.551 389,483.5C 389.667,482.167 390.333,482.167 391,483.5C 391.273,485.329 392.107,486.829 393.5,488C 392.376,488.249 391.376,488.749 390.5,489.5C 394.915,490.206 398.582,492.206 401.5,495.5C 401.291,496.086 400.957,496.586 400.5,497C 402.347,498.703 404.181,498.536 406,496.5C 406.456,497.744 405.956,498.577 404.5,499C 406.637,501.843 409.303,504.176 412.5,506C 411.833,506.333 411.167,506.667 410.5,507C 412.125,507.853 412.458,508.853 411.5,510C 412.5,510.333 413.5,510.667 414.5,511C 413.72,512.073 413.887,513.24 415,514.5C 415.419,513.328 416.085,512.328 417,511.5C 417.617,512.449 417.451,513.282 416.5,514C 417.469,515.758 418.636,516.258 420,515.5C 421.067,516.191 422.234,516.691 423.5,517C 422.742,518.364 423.242,519.531 425,520.5C 426.243,519.664 427.41,519.997 428.5,521.5C 427.828,523.86 428.661,525.86 431,527.5C 431.176,523.312 431.676,519.312 432.5,515.5C 432.5,521.833 432.5,528.167 432.5,534.5C 432.083,535.124 431.416,535.457 430.5,535.5C 426.299,533.766 421.965,533.266 417.5,534C 413.13,535.549 409.463,538.049 406.5,541.5C 406.649,540.448 406.483,539.448 406,538.5C 404.615,539.551 403.615,540.884 403,542.5C 402.138,540.913 401.471,539.246 401,537.5C 400.667,537.833 400.333,538.167 400,538.5C 399.682,536.939 398.849,535.772 397.5,535C 398.167,534.667 398.833,534.333 399.5,534C 397.508,533.426 396.008,532.259 395,530.5C 394.282,531.451 393.449,531.617 392.5,531C 392.835,529.497 392.835,528.164 392.5,527C 390.623,525.815 388.623,524.815 386.5,524C 386.833,523.667 387.167,523.333 387.5,523C 385.372,521.377 384.039,519.211 383.5,516.5C 382.184,519.028 381.017,519.028 380,516.5C 378.933,517.191 377.766,517.691 376.5,518C 379.032,518.612 379.865,520.112 379,522.5C 378.147,520.875 377.147,520.542 376,521.5C 375.821,525.025 375.321,528.359 374.5,531.5C 374.333,514.497 374.5,497.497 375,480.5C 375.935,477.405 377.769,475.071 380.5,473.5 Z"/></g>
<g><path style="opacity:1" fill="#1c4e8b" d="M 335.5,532.5 C 337.857,532.337 340.19,532.503 342.5,533C 341.5,533.333 340.5,533.667 339.5,534C 340.833,534.667 342.167,535.333 343.5,536C 343.043,536.414 342.709,536.914 342.5,537.5C 344.197,538.364 345.363,539.697 346,541.5C 346.333,541.167 346.667,540.833 347,540.5C 347.667,541.833 348.667,542.833 350,543.5C 351.049,542.483 352.216,542.316 353.5,543C 352.572,543.388 351.905,544.055 351.5,545C 355.116,548.953 358.782,552.953 362.5,557C 363.449,557.617 364.282,557.451 365,556.5C 368.667,560.167 372.333,563.833 376,567.5C 376.333,567.167 376.667,566.833 377,566.5C 378.792,570.284 381.292,573.451 384.5,576C 383.74,577.441 383.074,578.941 382.5,580.5C 384.61,580.294 386.61,581.127 388.5,583C 389.833,584 389.833,585 388.5,586C 389.899,586.595 391.232,586.428 392.5,585.5C 394.443,587.492 395.61,589.492 396,591.5C 396.414,591.043 396.914,590.709 397.5,590.5C 397.736,591.247 398.07,592.08 398.5,593C 399.833,593 401.167,593 402.5,593C 405.372,597.543 409.372,600.543 414.5,602C 413.833,602.333 413.167,602.667 412.5,603C 414.049,604.214 415.215,605.714 416,607.5C 420.461,609.686 424.795,613.02 429,617.5C 430.694,616.301 432.194,614.968 433.5,613.5C 433.5,618.5 433.5,623.5 433.5,628.5C 432.837,626.958 432.17,625.291 431.5,623.5C 431.089,624.262 430.923,625.262 431,626.5C 429.017,624.342 426.683,622.675 424,621.5C 422.846,623.957 421.512,623.957 420,621.5C 419.282,622.451 418.449,622.617 417.5,622C 414.808,619.638 412.141,617.304 409.5,615C 409.833,614.667 410.167,614.333 410.5,614C 408.117,613.935 407.45,613.102 408.5,611.5C 404.692,606.474 400.025,603.307 394.5,602C 390.629,597.061 386.129,593.561 381,591.5C 380.667,591.833 380.333,592.167 380,592.5C 379.168,589.884 377.668,587.384 375.5,585C 376.051,583.602 376.384,582.268 376.5,581C 374.402,576.832 371.402,574.499 367.5,574C 367.957,573.586 368.291,573.086 368.5,572.5C 367.282,572.891 366.448,572.224 366,570.5C 365.282,571.451 364.449,571.617 363.5,571C 364.451,570.282 364.617,569.449 364,568.5C 356.226,560.409 347.726,552.242 338.5,544C 337.049,544.263 335.716,544.096 334.5,543.5C 335.638,539.742 334.638,536.575 331.5,534C 333.058,533.79 334.391,533.29 335.5,532.5 Z"/></g>
<g><path style="opacity:1" fill="#289dbf" d="M 482.5,531.5 C 488.109,532.609 491.609,535.942 493,541.5C 493.827,554.34 493.66,567.007 492.5,579.5C 492.666,574.821 492.499,570.155 492,565.5C 487.092,558.85 481.925,552.517 476.5,546.5C 477.025,545.808 477.692,545.308 478.5,545C 477.202,542.501 477.536,540.167 479.5,538C 477.606,536.899 476.939,535.566 477.5,534C 479.175,533.015 480.842,532.181 482.5,531.5 Z"/></g>
<g><path style="opacity:1" fill="#6db24e" d="M 675.5,561.5 C 675.5,566.5 675.5,571.5 675.5,576.5C 674.691,578.292 674.191,580.292 674,582.5C 672.234,580.404 670.901,578.071 670,575.5C 669.667,576.167 669.333,576.833 669,577.5C 668.581,576.328 667.915,575.328 667,574.5C 664.763,575.056 662.763,576.056 661,577.5C 660.16,574.536 659.16,574.203 658,576.5C 656.326,575.324 654.826,573.99 653.5,572.5C 652.522,572.977 651.689,573.643 651,574.5C 651.409,572.775 651.242,571.108 650.5,569.5C 649.28,568.289 648.113,568.289 647,569.5C 646.147,567.875 645.147,567.542 644,568.5C 642.414,567.624 640.914,566.624 639.5,565.5C 638.289,564.726 638.289,563.893 639.5,563C 638.747,561.513 637.914,561.346 637,562.5C 633.215,556.928 629.381,552.261 625.5,548.5C 625.5,543.833 625.5,539.167 625.5,534.5C 626.268,533.737 626.768,532.737 627,531.5C 627.921,535.266 629.421,538.766 631.5,542C 631.241,543.261 630.574,544.261 629.5,545C 633.612,546.779 636.778,549.612 639,553.5C 639.667,552.833 640.333,552.167 641,551.5C 643.201,553.179 645.034,555.179 646.5,557.5C 647.192,556.975 647.692,556.308 648,555.5C 648.7,557.032 649.866,558.032 651.5,558.5C 653.102,557.45 653.935,558.117 654,560.5C 654.718,559.549 655.551,559.383 656.5,560C 657.592,562.594 659.259,564.761 661.5,566.5C 663.816,563.573 665.316,563.907 666,567.5C 666.333,566.833 666.667,566.167 667,565.5C 667.741,566.641 668.575,566.641 669.5,565.5C 670.842,567.005 672.508,567.672 674.5,567.5C 674.205,565.265 674.539,563.265 675.5,561.5 Z"/></g>
<g><path style="opacity:1" fill="#1ea2bf" d="M 550.5,572.5 C 549.24,570.153 549.906,568.32 552.5,567C 549.613,567.023 547.613,568.523 546.5,571.5C 546.167,571.333 545.833,571.167 545.5,571C 543.224,566.796 541.891,562.296 541.5,557.5C 540.5,557.5 539.5,557.5 538.5,557.5C 538.649,556.448 538.483,555.448 538,554.5C 536.989,555.337 535.822,555.67 534.5,555.5C 534.349,552.282 533.516,551.949 532,554.5C 530.806,552.377 530.14,550.043 530,547.5C 527.477,543.672 524.811,540.005 522,536.5C 521.667,536.833 521.333,537.167 521,537.5C 519.103,535.984 516.936,535.317 514.5,535.5C 513.239,532.491 513.239,529.991 514.5,528C 511.413,527.702 508.413,527.202 505.5,526.5C 504.261,524.993 504.595,523.826 506.5,523C 503.945,521.445 502.112,519.278 501,516.5C 499.951,517.517 498.784,517.684 497.5,517C 498.833,515.667 498.833,514.333 497.5,513C 495.541,512.069 493.541,511.236 491.5,510.5C 488.692,507.061 485.359,504.228 481.5,502C 479.598,500.204 477.598,500.037 475.5,501.5C 479.33,497.501 482.997,493.335 486.5,489C 487.167,488.333 487.833,488.333 488.5,489C 510.216,513.594 532.049,538.094 554,562.5C 554.249,566.335 553.082,569.668 550.5,572.5 Z"/></g>
<g><path style="opacity:1" fill="#178cb7" d="M 482.5,531.5 C 480.842,532.181 479.175,533.015 477.5,534C 476.939,535.566 477.606,536.899 479.5,538C 477.536,540.167 477.202,542.501 478.5,545C 477.692,545.308 477.025,545.808 476.5,546.5C 481.925,552.517 487.092,558.85 492,565.5C 492.499,570.155 492.666,574.821 492.5,579.5C 487.117,578.266 482.117,576.266 477.5,573.5C 478.788,571.965 478.788,570.299 477.5,568.5C 475.851,567.352 474.351,566.019 473,564.5C 472.333,565.167 471.667,565.833 471,566.5C 470.333,564.5 469.667,562.5 469,560.5C 465.551,559.501 463.384,556.834 462.5,552.5C 460.583,549.761 457.916,548.261 454.5,548C 452.666,545.797 450.832,543.63 449,541.5C 448.81,538.462 449.476,535.795 451,533.5C 449.082,534.542 447.249,535.708 445.5,537C 446.638,538.734 447.138,540.568 447,542.5C 445.992,542.018 444.825,541.852 443.5,542C 444.609,540.187 443.942,539.354 441.5,539.5C 443.628,536.87 445.961,534.37 448.5,532C 459.828,531.5 471.162,531.333 482.5,531.5 Z"/></g>
<g><path style="opacity:1" fill="#197cad" d="M 477.5,573.5 C 465.5,568.5 453.5,563.5 441.5,558.5C 442.198,552.939 441.198,547.773 438.5,543C 439.71,541.961 440.71,540.794 441.5,539.5C 443.942,539.354 444.609,540.187 443.5,542C 444.825,541.852 445.992,542.018 447,542.5C 447.138,540.568 446.638,538.734 445.5,537C 447.249,535.708 449.082,534.542 451,533.5C 449.476,535.795 448.81,538.462 449,541.5C 450.832,543.63 452.666,545.797 454.5,548C 457.916,548.261 460.583,549.761 462.5,552.5C 463.384,556.834 465.551,559.501 469,560.5C 469.667,562.5 470.333,564.5 471,566.5C 471.667,565.833 472.333,565.167 473,564.5C 474.351,566.019 475.851,567.352 477.5,568.5C 478.788,570.299 478.788,571.965 477.5,573.5 Z"/></g>
<g><path style="opacity:1" fill="#fbfbf7" d="M 420.5,544.5 C 428.813,544.312 432.313,548.312 431,556.5C 428.103,561.155 423.937,562.655 418.5,561C 412.731,554.653 413.398,549.153 420.5,544.5 Z"/></g>
<g><path style="opacity:1" fill="#1e4182" d="M 323.5,532.5 C 325.167,532.5 326.833,532.5 328.5,532.5C 326.842,533.181 325.175,534.015 323.5,535C 324.92,537.209 326.587,539.209 328.5,541C 327.269,542.183 327.269,543.349 328.5,544.5C 329.845,545.347 330.845,546.513 331.5,548C 332.448,548.483 333.448,548.649 334.5,548.5C 336.341,551.86 338.841,554.86 342,557.5C 342.333,557.167 342.667,556.833 343,556.5C 343.273,558.329 344.107,559.829 345.5,561C 344.049,563.036 344.549,564.869 347,566.5C 347.604,564.314 348.77,564.148 350.5,566C 352.333,567.833 354.167,569.667 356,571.5C 356.688,572.332 356.521,572.998 355.5,573.5C 354.084,571.861 352.417,571.027 350.5,571C 351.622,573.124 353.122,574.957 355,576.5C 355.333,575.833 355.667,575.167 356,574.5C 362.088,575.918 366.088,579.918 368,586.5C 368.667,585.167 369.333,585.167 370,586.5C 370.684,587.784 370.517,588.951 369.5,590C 370.5,590.333 371.5,590.667 372.5,591C 370.19,591.497 367.857,591.663 365.5,591.5C 361.018,590.674 356.351,590.174 351.5,590C 352.424,589.15 352.424,588.15 351.5,587C 352.996,585.669 354.329,584.169 355.5,582.5C 353.253,581.755 351.42,580.422 350,578.5C 348.915,579.293 347.748,579.96 346.5,580.5C 345.708,578.535 345.041,576.535 344.5,574.5C 343.975,573.808 343.308,573.308 342.5,573C 342.833,572.667 343.167,572.333 343.5,572C 339.843,569.342 336.509,566.342 333.5,563C 327.562,560.973 325.895,557.306 328.5,552C 327.592,549.686 326.092,547.852 324,546.5C 322.956,547.623 322.29,548.956 322,550.5C 320.992,550.018 319.825,549.852 318.5,550C 320.916,547.897 320.916,545.897 318.5,544C 319.573,542.584 319.573,541.25 318.5,540C 320.797,538.737 321.63,536.903 321,534.5C 320.329,535.252 319.496,535.586 318.5,535.5C 319.659,533.75 321.326,532.75 323.5,532.5 Z"/></g>
<g><path style="opacity:1" fill="#5ca65f" d="M 569.5,550.5 C 571.857,550.337 574.19,550.503 576.5,551C 577.43,552.194 578.097,553.527 578.5,555C 572.456,561.562 566.289,568.062 560,574.5C 562.838,566.473 566.004,558.473 569.5,550.5 Z"/></g>
<g><path style="opacity:1" fill="#1a5690" d="M 323.5,532.5 C 338.658,531.504 353.991,531.17 369.5,531.5C 369.918,532.222 370.584,532.722 371.5,533C 370.833,534.667 370.167,536.333 369.5,538C 372.5,540.667 375.5,543.333 378.5,546C 377.167,546 375.833,546 374.5,546C 373.549,546.718 373.383,547.551 374,548.5C 377.642,546.77 380.975,547.437 384,550.5C 384.483,551.448 384.649,552.448 384.5,553.5C 389.693,553.046 392.193,555.38 392,560.5C 392.419,559.328 393.085,558.328 394,557.5C 395.687,560.624 395.854,563.791 394.5,567C 395.766,567.309 396.933,567.809 398,568.5C 399,570.833 400,573.167 401,575.5C 405.103,573.967 407.936,575.3 409.5,579.5C 410.425,578.359 411.259,578.359 412,579.5C 412.667,580.833 413.333,582.167 414,583.5C 416.321,582.639 417.487,583.639 417.5,586.5C 422.695,587.131 426.028,589.964 427.5,595C 427.167,597.333 426.833,599.667 426.5,602C 429.793,602.145 432.126,603.645 433.5,606.5C 433.5,608.833 433.5,611.167 433.5,613.5C 432.194,614.968 430.694,616.301 429,617.5C 424.795,613.02 420.461,609.686 416,607.5C 415.215,605.714 414.049,604.214 412.5,603C 413.167,602.667 413.833,602.333 414.5,602C 409.372,600.543 405.372,597.543 402.5,593C 401.167,593 399.833,593 398.5,593C 398.07,592.08 397.736,591.247 397.5,590.5C 396.914,590.709 396.414,591.043 396,591.5C 395.61,589.492 394.443,587.492 392.5,585.5C 391.232,586.428 389.899,586.595 388.5,586C 389.833,585 389.833,584 388.5,583C 386.61,581.127 384.61,580.294 382.5,580.5C 383.074,578.941 383.74,577.441 384.5,576C 381.292,573.451 378.792,570.284 377,566.5C 376.667,566.833 376.333,567.167 376,567.5C 372.333,563.833 368.667,560.167 365,556.5C 364.282,557.451 363.449,557.617 362.5,557C 358.782,552.953 355.116,548.953 351.5,545C 351.905,544.055 352.572,543.388 353.5,543C 352.216,542.316 351.049,542.483 350,543.5C 348.667,542.833 347.667,541.833 347,540.5C 346.667,540.833 346.333,541.167 346,541.5C 345.363,539.697 344.197,538.364 342.5,537.5C 342.709,536.914 343.043,536.414 343.5,536C 342.167,535.333 340.833,534.667 339.5,534C 340.5,533.667 341.5,533.333 342.5,533C 340.19,532.503 337.857,532.337 335.5,532.5C 333.167,532.5 330.833,532.5 328.5,532.5C 326.833,532.5 325.167,532.5 323.5,532.5 Z"/></g>
<g><path style="opacity:1" fill="#1987b4" d="M 535.5,583.5 C 531.559,584.471 528.226,586.471 525.5,589.5C 518.743,586.45 512.077,583.45 505.5,580.5C 505.333,568.829 505.5,557.162 506,545.5C 506.414,545.043 506.914,544.709 507.5,544.5C 508.216,545.311 509.05,545.978 510,546.5C 511.162,545.813 512.328,545.647 513.5,546C 510.994,548.549 511.16,551.049 514,553.5C 514.374,552.584 514.874,551.75 515.5,551C 512.818,548.67 513.151,548.17 516.5,549.5C 517.928,551.655 518.261,553.821 517.5,556C 518.583,558.056 520.25,559.389 522.5,560C 521.483,561.049 521.316,562.216 522,563.5C 523.388,562.446 524.888,562.28 526.5,563C 525.167,564.84 525.334,565.34 527,564.5C 528.586,565.376 530.086,566.376 531.5,567.5C 531.988,571.872 533.155,576.205 535,580.5C 536.726,579.424 538.559,579.257 540.5,580C 539.366,581.016 539.699,581.683 541.5,582C 539.292,582.191 537.292,582.691 535.5,583.5 Z"/></g>
<g><path style="opacity:1" fill="#213b7f" d="M 365.5,591.5 C 351.5,591.5 337.5,591.5 323.5,591.5C 318.814,590.313 315.981,587.313 315,582.5C 314.333,568.5 314.333,554.5 315,540.5C 315.697,538.416 316.864,536.749 318.5,535.5C 319.496,535.586 320.329,535.252 321,534.5C 321.63,536.903 320.797,538.737 318.5,540C 319.573,541.25 319.573,542.584 318.5,544C 320.916,545.897 320.916,547.897 318.5,550C 319.825,549.852 320.992,550.018 322,550.5C 322.29,548.956 322.956,547.623 324,546.5C 326.092,547.852 327.592,549.686 328.5,552C 325.895,557.306 327.562,560.973 333.5,563C 336.509,566.342 339.843,569.342 343.5,572C 343.167,572.333 342.833,572.667 342.5,573C 343.308,573.308 343.975,573.808 344.5,574.5C 345.041,576.535 345.708,578.535 346.5,580.5C 347.748,579.96 348.915,579.293 350,578.5C 351.42,580.422 353.253,581.755 355.5,582.5C 354.329,584.169 352.996,585.669 351.5,587C 352.424,588.15 352.424,589.15 351.5,590C 356.351,590.174 361.018,590.674 365.5,591.5 Z"/></g>
<g><path style="opacity:1" fill="#19639a" d="M 406.5,541.5 C 401.086,549.891 401.253,558.225 407,566.5C 414.046,573.622 422.213,575.289 431.5,571.5C 434.417,570.709 437.25,570.709 440,571.5C 440.796,575.367 441.63,579.367 442.5,583.5C 441.5,583.5 440.5,583.5 439.5,583.5C 438.864,586.106 438.864,588.606 439.5,591C 437.292,591.191 435.292,591.691 433.5,592.5C 433.5,597.167 433.5,601.833 433.5,606.5C 432.126,603.645 429.793,602.145 426.5,602C 426.833,599.667 427.167,597.333 427.5,595C 426.028,589.964 422.695,587.131 417.5,586.5C 417.487,583.639 416.321,582.639 414,583.5C 413.333,582.167 412.667,580.833 412,579.5C 411.259,578.359 410.425,578.359 409.5,579.5C 407.936,575.3 405.103,573.967 401,575.5C 400,573.167 399,570.833 398,568.5C 396.933,567.809 395.766,567.309 394.5,567C 395.854,563.791 395.687,560.624 394,557.5C 393.085,558.328 392.419,559.328 392,560.5C 392.193,555.38 389.693,553.046 384.5,553.5C 384.649,552.448 384.483,551.448 384,550.5C 380.975,547.437 377.642,546.77 374,548.5C 373.383,547.551 373.549,546.718 374.5,546C 375.833,546 377.167,546 378.5,546C 375.5,543.333 372.5,540.667 369.5,538C 370.167,536.333 370.833,534.667 371.5,533C 370.584,532.722 369.918,532.222 369.5,531.5C 371.167,531.5 372.833,531.5 374.5,531.5C 375.321,528.359 375.821,525.025 376,521.5C 377.147,520.542 378.147,520.875 379,522.5C 379.865,520.112 379.032,518.612 376.5,518C 377.766,517.691 378.933,517.191 380,516.5C 381.017,519.028 382.184,519.028 383.5,516.5C 384.039,519.211 385.372,521.377 387.5,523C 387.167,523.333 386.833,523.667 386.5,524C 388.623,524.815 390.623,525.815 392.5,527C 392.835,528.164 392.835,529.497 392.5,531C 393.449,531.617 394.282,531.451 395,530.5C 396.008,532.259 397.508,533.426 399.5,534C 398.833,534.333 398.167,534.667 397.5,535C 398.849,535.772 399.682,536.939 400,538.5C 400.333,538.167 400.667,537.833 401,537.5C 401.471,539.246 402.138,540.913 403,542.5C 403.615,540.884 404.615,539.551 406,538.5C 406.483,539.448 406.649,540.448 406.5,541.5 Z"/></g>
<g><path style="opacity:1" fill="#65ad54" d="M 625.5,548.5 C 629.381,552.261 633.215,556.928 637,562.5C 637.914,561.346 638.747,561.513 639.5,563C 638.289,563.893 638.289,564.726 639.5,565.5C 640.914,566.624 642.414,567.624 644,568.5C 645.147,567.542 646.147,567.875 647,569.5C 648.113,568.289 649.28,568.289 650.5,569.5C 651.242,571.108 651.409,572.775 651,574.5C 651.689,573.643 652.522,572.977 653.5,572.5C 654.826,573.99 656.326,575.324 658,576.5C 659.16,574.203 660.16,574.536 661,577.5C 662.763,576.056 664.763,575.056 667,574.5C 667.915,575.328 668.581,576.328 669,577.5C 669.333,576.833 669.667,576.167 670,575.5C 670.901,578.071 672.234,580.404 674,582.5C 674.191,580.292 674.691,578.292 675.5,576.5C 675.5,583.833 675.5,591.167 675.5,598.5C 674.683,600.969 674.183,603.635 674,606.5C 672.903,604.947 671.57,603.614 670,602.5C 670.077,603.738 669.911,604.738 669.5,605.5C 667.73,600.326 666.563,600.659 666,606.5C 665.5,605.333 664.667,604.5 663.5,604C 664.357,603.311 665.023,602.478 665.5,601.5C 664.806,598.912 663.64,596.579 662,594.5C 661.667,595.833 661.333,597.167 661,598.5C 659.249,597.191 657.749,597.525 656.5,599.5C 653.833,596.833 651.167,594.167 648.5,591.5C 647.377,593.289 646.044,593.622 644.5,592.5C 643.052,590.333 641.885,588 641,585.5C 640.333,586.167 639.667,586.833 639,587.5C 635.675,582.587 631.175,579.254 625.5,577.5C 625.5,567.833 625.5,558.167 625.5,548.5 Z"/></g>
<g><path style="opacity:1" fill="#2473a4" d="M 433.5,592.5 C 435.292,591.691 437.292,591.191 439.5,591C 438.864,588.606 438.864,586.106 439.5,583.5C 440.5,583.5 441.5,583.5 442.5,583.5C 441.63,579.367 440.796,575.367 440,571.5C 437.25,570.709 434.417,570.709 431.5,571.5C 433.456,569.886 435.456,568.219 437.5,566.5C 452.049,573.275 466.716,579.775 481.5,586C 487.363,587.639 487.696,589.639 482.5,592C 466.17,592.5 449.837,592.667 433.5,592.5 Z"/></g>
<g><path style="opacity:1" fill="#5ba764" d="M 625.5,520.5 C 625.5,520.833 625.5,521.167 625.5,521.5C 625.5,525.833 625.5,530.167 625.5,534.5C 625.5,539.167 625.5,543.833 625.5,548.5C 625.5,558.167 625.5,567.833 625.5,577.5C 625.067,583.834 626.234,589.834 629,595.5C 632.408,593.777 634.741,594.777 636,598.5C 639.928,599.032 642.928,601.365 645,605.5C 646.84,604.167 647.34,604.334 646.5,606C 647,606.5 647.5,607 648,607.5C 648.603,604.094 649.769,603.761 651.5,606.5C 650.96,607.748 650.293,608.915 649.5,610C 652.167,610.667 652.167,611.333 649.5,612C 651.918,612.915 653.918,614.415 655.5,616.5C 656.291,615.934 656.291,615.101 655.5,614C 655.85,612.743 656.517,612.409 657.5,613C 659.562,615.068 660.728,617.568 661,620.5C 661.741,616.815 663.241,616.149 665.5,618.5C 667.789,616.408 670.289,616.074 673,617.5C 674.019,615.498 674.852,613.498 675.5,611.5C 675.5,619.167 675.5,626.833 675.5,634.5C 674.596,635.209 674.263,636.209 674.5,637.5C 672.418,637.528 670.584,636.861 669,635.5C 668,635.833 667,636.167 666,636.5C 663.333,635.167 661.333,633.167 660,630.5C 659.333,631.167 658.667,631.833 658,632.5C 656.333,631.167 654.667,629.833 653,628.5C 650.346,628.254 647.679,628.921 645,630.5C 642.833,629 643,627.833 645.5,627C 642.8,626.223 640.133,624.723 637.5,622.5C 638.167,621.5 638.833,620.5 639.5,619.5C 636.377,616.156 633.043,613.156 629.5,610.5C 626.075,613.681 624.741,617.681 625.5,622.5C 624.167,588.5 624.167,554.5 625.5,520.5 Z"/></g>
<g><path style="opacity:1" fill="#fafcfc" d="M 537.5,593.5 C 546.693,593.215 550.193,597.548 548,606.5C 545.337,610.725 541.504,612.225 536.5,611C 529.599,604.72 529.932,598.887 537.5,593.5 Z"/></g>
<g><path style="opacity:1" fill="#1f4887" d="M 328.5,532.5 C 330.833,532.5 333.167,532.5 335.5,532.5C 334.391,533.29 333.058,533.79 331.5,534C 334.638,536.575 335.638,539.742 334.5,543.5C 335.716,544.096 337.049,544.263 338.5,544C 347.726,552.242 356.226,560.409 364,568.5C 364.617,569.449 364.451,570.282 363.5,571C 364.449,571.617 365.282,571.451 366,570.5C 366.448,572.224 367.282,572.891 368.5,572.5C 368.291,573.086 367.957,573.586 367.5,574C 371.402,574.499 374.402,576.832 376.5,581C 376.384,582.268 376.051,583.602 375.5,585C 377.668,587.384 379.168,589.884 380,592.5C 380.333,592.167 380.667,591.833 381,591.5C 386.129,593.561 390.629,597.061 394.5,602C 400.025,603.307 404.692,606.474 408.5,611.5C 407.45,613.102 408.117,613.935 410.5,614C 410.167,614.333 409.833,614.667 409.5,615C 412.141,617.304 414.808,619.638 417.5,622C 418.449,622.617 419.282,622.451 420,621.5C 421.512,623.957 422.846,623.957 424,621.5C 426.683,622.675 429.017,624.342 431,626.5C 430.923,625.262 431.089,624.262 431.5,623.5C 432.17,625.291 432.837,626.958 433.5,628.5C 433.821,633.695 433.487,638.695 432.5,643.5C 432.649,642.448 432.483,641.448 432,640.5C 431.667,640.833 431.333,641.167 431,641.5C 429.829,640.107 428.329,639.273 426.5,639C 427.108,636.816 426.441,634.816 424.5,633C 422.324,632.837 420.491,632.004 419,630.5C 418.667,630.833 418.333,631.167 418,631.5C 415.86,630.272 414.193,628.605 413,626.5C 411.513,627.253 411.346,628.086 412.5,629C 409.56,629.886 408.56,629.052 409.5,626.5C 407.726,625.813 406.059,624.98 404.5,624C 405.167,623.667 405.833,623.333 406.5,623C 404.945,621.417 403.778,619.584 403,617.5C 402.586,617.957 402.086,618.291 401.5,618.5C 399.428,616.384 397.262,614.384 395,612.5C 394.667,612.833 394.333,613.167 394,613.5C 393.517,612.552 393.351,611.552 393.5,610.5C 392.448,610.649 391.448,610.483 390.5,610C 388.597,607.595 386.264,605.761 383.5,604.5C 381.471,605.629 381.137,605.129 382.5,603C 381.531,601.242 380.364,600.742 379,601.5C 378,600.833 377,600.167 376,599.5C 375.501,603.152 375.335,606.818 375.5,610.5C 375.5,621.5 375.5,632.5 375.5,643.5C 374.503,626.675 374.17,609.675 374.5,592.5C 357.325,592.83 340.325,592.497 323.5,591.5C 337.5,591.5 351.5,591.5 365.5,591.5C 367.857,591.663 370.19,591.497 372.5,591C 371.5,590.667 370.5,590.333 369.5,590C 370.517,588.951 370.684,587.784 370,586.5C 369.333,585.167 368.667,585.167 368,586.5C 366.088,579.918 362.088,575.918 356,574.5C 355.667,575.167 355.333,575.833 355,576.5C 353.122,574.957 351.622,573.124 350.5,571C 352.417,571.027 354.084,571.861 355.5,573.5C 356.521,572.998 356.688,572.332 356,571.5C 354.167,569.667 352.333,567.833 350.5,566C 348.77,564.148 347.604,564.314 347,566.5C 344.549,564.869 344.049,563.036 345.5,561C 344.107,559.829 343.273,558.329 343,556.5C 342.667,556.833 342.333,557.167 342,557.5C 338.841,554.86 336.341,551.86 334.5,548.5C 333.448,548.649 332.448,548.483 331.5,548C 330.845,546.513 329.845,545.347 328.5,544.5C 327.269,543.349 327.269,542.183 328.5,541C 326.587,539.209 324.92,537.209 323.5,535C 325.175,534.015 326.842,533.181 328.5,532.5 Z"/></g>
<g><path style="opacity:1" fill="#5ea95c" d="M 625.5,577.5 C 631.175,579.254 635.675,582.587 639,587.5C 639.667,586.833 640.333,586.167 641,585.5C 641.885,588 643.052,590.333 644.5,592.5C 646.044,593.622 647.377,593.289 648.5,591.5C 651.167,594.167 653.833,596.833 656.5,599.5C 657.749,597.525 659.249,597.191 661,598.5C 661.333,597.167 661.667,595.833 662,594.5C 663.64,596.579 664.806,598.912 665.5,601.5C 665.023,602.478 664.357,603.311 663.5,604C 664.667,604.5 665.5,605.333 666,606.5C 666.563,600.659 667.73,600.326 669.5,605.5C 669.911,604.738 670.077,603.738 670,602.5C 671.57,603.614 672.903,604.947 674,606.5C 674.183,603.635 674.683,600.969 675.5,598.5C 675.5,602.833 675.5,607.167 675.5,611.5C 674.852,613.498 674.019,615.498 673,617.5C 670.289,616.074 667.789,616.408 665.5,618.5C 663.241,616.149 661.741,616.815 661,620.5C 660.728,617.568 659.562,615.068 657.5,613C 656.517,612.409 655.85,612.743 655.5,614C 656.291,615.101 656.291,615.934 655.5,616.5C 653.918,614.415 651.918,612.915 649.5,612C 652.167,611.333 652.167,610.667 649.5,610C 650.293,608.915 650.96,607.748 651.5,606.5C 649.769,603.761 648.603,604.094 648,607.5C 647.5,607 647,606.5 646.5,606C 647.34,604.334 646.84,604.167 645,605.5C 642.928,601.365 639.928,599.032 636,598.5C 634.741,594.777 632.408,593.777 629,595.5C 626.234,589.834 625.067,583.834 625.5,577.5 Z"/></g>
<g><path style="opacity:1" fill="#1f397e" d="M 375.5,610.5 C 378.834,611.67 381.001,614.003 382,617.5C 382.347,613.884 383.514,613.217 385.5,615.5C 385.833,614.833 386.167,614.167 386.5,613.5C 387.298,615.078 387.798,616.744 388,618.5C 389.827,619.659 391.493,620.992 393,622.5C 393.333,622.167 393.667,621.833 394,621.5C 398.301,624.801 401.468,628.968 403.5,634C 402.553,637.019 403.22,637.186 405.5,634.5C 408.317,635.095 410.65,636.428 412.5,638.5C 417.577,636.074 418.243,636.907 414.5,641C 415.522,643.316 417.022,643.816 419,642.5C 419.401,646.044 421.401,648.044 425,648.5C 426.605,647.899 427.938,646.899 429,645.5C 429.717,646.044 430.217,646.711 430.5,647.5C 429.229,649.934 427.229,651.434 424.5,652C 410.5,652.667 396.5,652.667 382.5,652C 378.819,650.163 376.485,647.33 375.5,643.5C 375.5,632.5 375.5,621.5 375.5,610.5 Z"/></g>
<g><path style="opacity:1" fill="#1f4183" d="M 432.5,643.5 C 432.771,645.38 432.104,646.713 430.5,647.5C 430.217,646.711 429.717,646.044 429,645.5C 427.938,646.899 426.605,647.899 425,648.5C 421.401,648.044 419.401,646.044 419,642.5C 417.022,643.816 415.522,643.316 414.5,641C 418.243,636.907 417.577,636.074 412.5,638.5C 410.65,636.428 408.317,635.095 405.5,634.5C 403.22,637.186 402.553,637.019 403.5,634C 401.468,628.968 398.301,624.801 394,621.5C 393.667,621.833 393.333,622.167 393,622.5C 391.493,620.992 389.827,619.659 388,618.5C 387.798,616.744 387.298,615.078 386.5,613.5C 386.167,614.167 385.833,614.833 385.5,615.5C 383.514,613.217 382.347,613.884 382,617.5C 381.001,614.003 378.834,611.67 375.5,610.5C 375.335,606.818 375.501,603.152 376,599.5C 377,600.167 378,600.833 379,601.5C 380.364,600.742 381.531,601.242 382.5,603C 381.137,605.129 381.471,605.629 383.5,604.5C 386.264,605.761 388.597,607.595 390.5,610C 391.448,610.483 392.448,610.649 393.5,610.5C 393.351,611.552 393.517,612.552 394,613.5C 394.333,613.167 394.667,612.833 395,612.5C 397.262,614.384 399.428,616.384 401.5,618.5C 402.086,618.291 402.586,617.957 403,617.5C 403.778,619.584 404.945,621.417 406.5,623C 405.833,623.333 405.167,623.667 404.5,624C 406.059,624.98 407.726,625.813 409.5,626.5C 408.56,629.052 409.56,629.886 412.5,629C 411.346,628.086 411.513,627.253 413,626.5C 414.193,628.605 415.86,630.272 418,631.5C 418.333,631.167 418.667,630.833 419,630.5C 420.491,632.004 422.324,632.837 424.5,633C 426.441,634.816 427.108,636.816 426.5,639C 428.329,639.273 429.829,640.107 431,641.5C 431.333,641.167 431.667,640.833 432,640.5C 432.483,641.448 432.649,642.448 432.5,643.5 Z"/></g>
<g><path style="opacity:1" fill="#f8fcfa" d="M 619.5,633.5 C 627.955,632.461 632.122,636.128 632,644.5C 627.47,651.588 622.137,652.255 616,646.5C 613.348,641.039 614.514,636.706 619.5,633.5 Z"/></g>
<g><path style="opacity:1" fill="#4da06d" d="M 675.5,634.5 C 675.666,638.514 675.499,642.514 675,646.5C 673.891,648.815 672.057,650.315 669.5,651C 659.833,651.667 650.167,651.667 640.5,651C 645.867,640.63 643.867,631.964 634.5,625C 631.688,623.451 628.688,622.618 625.5,622.5C 624.741,617.681 626.075,613.681 629.5,610.5C 633.043,613.156 636.377,616.156 639.5,619.5C 638.833,620.5 638.167,621.5 637.5,622.5C 640.133,624.723 642.8,626.223 645.5,627C 643,627.833 642.833,629 645,630.5C 647.679,628.921 650.346,628.254 653,628.5C 654.667,629.833 656.333,631.167 658,632.5C 658.667,631.833 659.333,631.167 660,630.5C 661.333,633.167 663.333,635.167 666,636.5C 667,636.167 668,635.833 669,635.5C 670.584,636.861 672.418,637.528 674.5,637.5C 674.263,636.209 674.596,635.209 675.5,634.5 Z"/></g>
</svg>
