<?xml version="1.0" encoding="UTF-8"?>
<!DOCTYPE svg PUBLIC "-//W3C//DTD SVG 1.1//EN" "http://www.w3.org/Graphics/SVG/1.1/DTD/svg11.dtd">
<svg xmlns="http://www.w3.org/2000/svg" version="1.1" width="500px" height="500px" style="shape-rendering:geometricPrecision; text-rendering:geometricPrecision; image-rendering:optimizeQuality; fill-rule:evenodd; clip-rule:evenodd" xmlns:xlink="http://www.w3.org/1999/xlink">
<g><path style="opacity:1" fill="#fefefe" d="M -0.5,-0.5 C 166.167,-0.5 332.833,-0.5 499.5,-0.5C 499.5,166.167 499.5,332.833 499.5,499.5C 332.833,499.5 166.167,499.5 -0.5,499.5C -0.5,332.833 -0.5,166.167 -0.5,-0.5 Z"/></g>
<g><path style="opacity:1" fill="#fd0a5f" d="M 135.5,195.5 C 125.167,195.5 114.833,195.5 104.5,195.5C 103.506,205.653 103.172,215.986 103.5,226.5C 93.5,226.5 83.5,226.5 73.5,226.5C 73.5,211.167 73.5,195.833 73.5,180.5C 79.3624,161.161 92.3624,152.994 112.5,156C 130.586,162.996 138.253,176.162 135.5,195.5 Z"/></g>
<g><path style="opacity:1" fill="#fdfdfd" d="M 104.5,195.5 C 114.833,195.5 125.167,195.5 135.5,195.5C 135.5,206.167 135.5,216.833 135.5,227.5C 146.167,227.5 156.833,227.5 167.5,227.5C 167.5,237.833 167.5,248.167 167.5,258.5C 156.833,258.5 146.167,258.5 135.5,258.5C 135.5,269.167 135.5,279.833 135.5,290.5C 125.167,290.5 114.833,290.5 104.5,290.5C 104.5,279.833 104.5,269.167 104.5,258.5C 94.1667,258.5 83.8333,258.5 73.5,258.5C 73.5,248.167 73.5,237.833 73.5,227.5C 83.8333,227.5 94.1667,227.5 104.5,227.5C 104.5,216.833 104.5,206.167 104.5,195.5 Z"/></g>
<g><path style="opacity:1" fill="#13b8fb" d="M 182.5,196.5 C 200.936,201.439 209.436,213.439 208,232.5C 202.021,252.587 188.521,261.254 167.5,258.5C 167.5,248.167 167.5,237.833 167.5,227.5C 157.347,226.506 147.014,226.172 136.5,226.5C 136.5,216.5 136.5,206.5 136.5,196.5C 151.833,196.5 167.167,196.5 182.5,196.5 Z"/></g>
<g><path style="opacity:1" fill="#66cbee" d="M 135.5,195.5 C 151.342,195.17 167.009,195.504 182.5,196.5C 167.167,196.5 151.833,196.5 136.5,196.5C 136.5,206.5 136.5,216.5 136.5,226.5C 147.014,226.172 157.347,226.506 167.5,227.5C 156.833,227.5 146.167,227.5 135.5,227.5C 135.5,216.833 135.5,206.167 135.5,195.5 Z"/></g>
<g><path style="opacity:1" fill="#0c0c0c" d="M 228.5,212.5 C 231.85,212.335 235.183,212.502 238.5,213C 242.07,219.979 245.737,226.813 249.5,233.5C 253.265,226.694 256.931,219.861 260.5,213C 264.091,212.211 267.591,212.378 271,213.5C 269.383,218.78 268.549,224.447 268.5,230.5C 268.667,234.833 268.833,239.167 269,243.5C 270.298,244.56 271.465,245.726 272.5,247C 272.095,247.945 271.428,248.612 270.5,249C 265.845,249.499 261.179,249.666 256.5,249.5C 258.46,245.057 259.46,240.223 259.5,235C 259.333,231.833 259.167,228.667 259,225.5C 255.712,233.373 252.045,241.04 248,248.5C 243.22,241.274 239.22,233.608 236,225.5C 235.833,228.667 235.667,231.833 235.5,235C 235.635,239.891 236.468,244.391 238,248.5C 234.333,249.833 230.667,249.833 227,248.5C 226.333,247.5 226.333,246.5 227,245.5C 228.333,244.833 229.333,243.833 230,242.5C 230.667,234.5 230.667,226.5 230,218.5C 228.702,217.44 227.535,216.274 226.5,215C 227.056,213.989 227.722,213.156 228.5,212.5 Z"/></g>
<g><path style="opacity:1" fill="#0e0e0e" d="M 322.5,212.5 C 325.167,212.5 327.833,212.5 330.5,212.5C 330.334,222.839 330.5,233.172 331,243.5C 332.604,244.068 333.27,245.068 333,246.5C 328.985,249.816 324.818,250.15 320.5,247.5C 309.835,252.166 304.169,248.666 303.5,237C 304.698,225.973 310.698,221.807 321.5,224.5C 321.799,222.396 321.466,220.396 320.5,218.5C 319.28,218.113 318.613,217.28 318.5,216C 319.686,214.588 321.019,213.421 322.5,212.5 Z"/></g>
<g><path style="opacity:1" fill="#131313" d="M 338.5,212.5 C 340.857,212.337 343.19,212.503 345.5,213C 348.216,217.2 346.882,219.7 341.5,220.5C 336.225,219.392 335.225,216.725 338.5,212.5 Z"/></g>
<g><path style="opacity:1" fill="#131313" d="M 355.5,212.5 C 358.167,212.5 360.833,212.5 363.5,212.5C 363.333,223.172 363.5,233.839 364,244.5C 366.168,245.629 366.668,247.129 365.5,249C 361.167,249.667 356.833,249.667 352.5,249C 351.179,247.455 351.512,246.289 353.5,245.5C 354.833,236.5 354.833,227.5 353.5,218.5C 352.5,218.167 351.833,217.5 351.5,216.5C 352.549,214.784 353.882,213.451 355.5,212.5 Z"/></g>
<g><path style="opacity:1" fill="#161616" d="M 371.5,212.5 C 374.187,212.336 376.854,212.503 379.5,213C 380.639,218.529 378.306,220.862 372.5,220C 369.034,217.806 368.7,215.306 371.5,212.5 Z"/></g>
<g><path style="opacity:1" fill="#101010" d="M 422.5,212.5 C 425.167,212.5 427.833,212.5 430.5,212.5C 430.334,219.508 430.5,226.508 431,233.5C 432.667,231.833 434.333,230.167 436,228.5C 435.621,226.925 435.788,225.425 436.5,224C 439.5,223.333 442.5,223.333 445.5,224C 446.337,225.011 446.67,226.178 446.5,227.5C 442.483,227.342 439.483,229.009 437.5,232.5C 440.959,238.298 445.626,242.632 451.5,245.5C 451.67,246.822 451.337,247.989 450.5,249C 447.167,249.667 443.833,249.667 440.5,249C 437.333,245.167 434.167,241.333 431,237.5C 429.972,241.389 430.805,244.723 433.5,247.5C 433.291,248.086 432.957,248.586 432.5,249C 427.913,249.799 423.413,249.632 419,248.5C 418.399,247.035 418.899,246.035 420.5,245.5C 421.833,236.5 421.833,227.5 420.5,218.5C 419.5,218.167 418.833,217.5 418.5,216.5C 419.549,214.784 420.882,213.451 422.5,212.5 Z"/></g>
<g><path style="opacity:1" fill="#0c0c0c" d="M 283.5,223.5 C 288.449,222.959 293.116,223.792 297.5,226C 299.931,229.078 300.931,232.578 300.5,236.5C 295.167,236.5 289.833,236.5 284.5,236.5C 284.146,239.961 285.479,242.461 288.5,244C 292.234,244.14 295.901,243.64 299.5,242.5C 299.607,244.903 298.607,246.736 296.5,248C 281.396,252.902 274.563,247.402 276,231.5C 277.69,227.979 280.19,225.312 283.5,223.5 Z"/></g>
<g><path style="opacity:1" fill="#050505" d="M 340.5,223.5 C 342.5,223.5 344.5,223.5 346.5,223.5C 346.334,230.508 346.5,237.508 347,244.5C 349.168,245.629 349.668,247.129 348.5,249C 344.5,249.667 340.5,249.667 336.5,249C 335.184,247.022 335.684,245.522 338,244.5C 338.667,239.833 338.667,235.167 338,230.5C 336.513,229.845 335.347,228.845 334.5,227.5C 336.219,225.648 338.219,224.314 340.5,223.5 Z"/></g>
<g><path style="opacity:1" fill="#121212" d="M 373.5,223.5 C 375.833,223.5 378.167,223.5 380.5,223.5C 380.169,230.863 380.503,238.197 381.5,245.5C 383.488,246.289 383.821,247.455 382.5,249C 378.167,249.667 373.833,249.667 369.5,249C 368.332,247.129 368.832,245.629 371,244.5C 371.667,239.833 371.667,235.167 371,230.5C 369.842,230.002 369.009,229.169 368.5,228C 369.761,226.038 371.428,224.538 373.5,223.5 Z"/></g>
<g><path style="opacity:1" fill="#0a0a0a" d="M 390.5,223.5 C 392.5,223.5 394.5,223.5 396.5,223.5C 396.03,227.97 397.03,228.47 399.5,225C 403.471,223.087 407.471,223.087 411.5,225C 412.46,226.419 413.293,227.919 414,229.5C 414.333,234.5 414.667,239.5 415,244.5C 416.678,245.466 417.345,246.799 417,248.5C 412.599,249.467 408.099,249.8 403.5,249.5C 405.265,243.635 405.765,237.635 405,231.5C 401.512,228.538 398.845,229.205 397,233.5C 396.333,237.167 396.333,240.833 397,244.5C 398.678,245.466 399.345,246.799 399,248.5C 394.667,249.833 390.333,249.833 386,248.5C 385.655,246.799 386.322,245.466 388,244.5C 388.667,239.833 388.667,235.167 388,230.5C 386.513,229.845 385.347,228.845 384.5,227.5C 386.219,225.648 388.219,224.314 390.5,223.5 Z"/></g>
<g><path style="opacity:1" fill="#eb5188" d="M 73.5,180.5 C 73.5,195.833 73.5,211.167 73.5,226.5C 83.5,226.5 93.5,226.5 103.5,226.5C 103.172,215.986 103.506,205.653 104.5,195.5C 104.5,206.167 104.5,216.833 104.5,227.5C 94.1667,227.5 83.8333,227.5 73.5,227.5C 73.1667,227.5 72.8333,227.5 72.5,227.5C 72.1704,211.658 72.5037,195.991 73.5,180.5 Z"/></g>
<g><path style="opacity:1" fill="#f2f2f2" d="M 286.5,227.5 C 290.833,227.167 292.833,229.167 292.5,233.5C 289.833,233.5 287.167,233.5 284.5,233.5C 284.253,231.142 284.919,229.142 286.5,227.5 Z"/></g>
<g><path style="opacity:1" fill="#11b7fb" d="M 72.5,227.5 C 72.5,238.167 72.5,248.833 72.5,259.5C 82.8333,259.5 93.1667,259.5 103.5,259.5C 103.5,269.5 103.5,279.5 103.5,289.5C 88.1667,289.5 72.8333,289.5 57.5,289.5C 44.5969,286.431 36.4302,278.431 33,265.5C 30.8829,247.235 38.3829,234.735 55.5,228C 61.1569,227.501 66.8236,227.334 72.5,227.5 Z"/></g>
<g><path style="opacity:1" fill="#f3f3f3" d="M 314.5,228.5 C 316.792,228.244 318.959,228.577 321,229.5C 321.667,233.833 321.667,238.167 321,242.5C 318.034,245.265 315.367,244.932 313,241.5C 312.055,236.939 312.555,232.606 314.5,228.5 Z"/></g>
<g><path style="opacity:1" fill="#fd0b5f" d="M 167.5,259.5 C 167.667,274.837 167.5,290.17 167,305.5C 160.586,325.228 147.086,333.395 126.5,330C 109.239,322.529 101.905,309.362 104.5,290.5C 114.833,290.5 125.167,290.5 135.5,290.5C 136.494,280.347 136.828,270.014 136.5,259.5C 146.833,259.5 157.167,259.5 167.5,259.5 Z"/></g>
<g><path style="opacity:1" fill="#e76a9b" d="M 167.5,258.5 C 167.5,258.833 167.5,259.167 167.5,259.5C 157.167,259.5 146.833,259.5 136.5,259.5C 136.828,270.014 136.494,280.347 135.5,290.5C 135.5,279.833 135.5,269.167 135.5,258.5C 146.167,258.5 156.833,258.5 167.5,258.5 Z"/></g>
<g><path style="opacity:1" fill="#57c6ed" d="M 72.5,227.5 C 72.8333,227.5 73.1667,227.5 73.5,227.5C 73.5,237.833 73.5,248.167 73.5,258.5C 83.8333,258.5 94.1667,258.5 104.5,258.5C 104.5,269.167 104.5,279.833 104.5,290.5C 88.6578,290.83 72.9911,290.496 57.5,289.5C 72.8333,289.5 88.1667,289.5 103.5,289.5C 103.5,279.5 103.5,269.5 103.5,259.5C 93.1667,259.5 82.8333,259.5 72.5,259.5C 72.5,248.833 72.5,238.167 72.5,227.5 Z"/></g>
</svg>
