<?xml version="1.0" encoding="UTF-8"?>
<!DOCTYPE svg PUBLIC "-//W3C//DTD SVG 1.1//EN" "http://www.w3.org/Graphics/SVG/1.1/DTD/svg11.dtd">
<svg xmlns="http://www.w3.org/2000/svg" version="1.1" width="1200px" height="1200px" style="shape-rendering:geometricPrecision; text-rendering:geometricPrecision; image-rendering:optimizeQuality; fill-rule:evenodd; clip-rule:evenodd" xmlns:xlink="http://www.w3.org/1999/xlink">
<g><path style="opacity:1" fill="#fefefe" d="M -0.5,-0.5 C 399.5,-0.5 799.5,-0.5 1199.5,-0.5C 1199.5,399.5 1199.5,799.5 1199.5,1199.5C 799.5,1199.5 399.5,1199.5 -0.5,1199.5C -0.5,799.5 -0.5,399.5 -0.5,-0.5 Z"/></g>
<g><path style="opacity:1" fill="#f083ac" d="M 527.5,295.5 C 525.095,296.768 522.428,297.435 519.5,297.5C 521.838,295.96 524.505,295.294 527.5,295.5 Z"/></g>
<g><path style="opacity:1" fill="#d92662" d="M 564.5,296.5 C 554.161,296.334 543.828,296.5 533.5,297C 525.825,298.059 518.491,300.226 511.5,303.5C 511.167,302.833 510.833,302.167 510.5,301.5C 508.382,302.946 506.049,303.613 503.5,303.5C 505.93,301.619 508.596,300.285 511.5,299.5C 514.428,299.435 517.095,298.768 519.5,297.5C 522.428,297.435 525.095,296.768 527.5,295.5C 533.299,294.903 539.133,294.57 545,294.5C 551.746,294.28 558.246,294.946 564.5,296.5 Z"/></g>
<g><path style="opacity:1" fill="#da4674" d="M 564.5,296.5 C 568.458,296.251 572.124,296.918 575.5,298.5C 572.15,298.665 568.817,298.498 565.5,298C 564.944,297.617 564.611,297.117 564.5,296.5 Z"/></g>
<g><path style="opacity:1" fill="#ef86ae" d="M 519.5,297.5 C 517.095,298.768 514.428,299.435 511.5,299.5C 513.838,297.96 516.505,297.294 519.5,297.5 Z"/></g>
<g><path style="opacity:1" fill="#fe075f" d="M 564.5,296.5 C 564.611,297.117 564.944,297.617 565.5,298C 568.817,298.498 572.15,298.665 575.5,298.5C 575.369,299.376 575.702,300.043 576.5,300.5C 581.425,301.629 585.758,303.796 589.5,307C 594.589,307.874 599.256,309.874 603.5,313C 604.793,313.49 606.127,313.657 607.5,313.5C 610.495,315.493 613.495,317.493 616.5,319.5C 617.833,322.833 620.167,325.167 623.5,326.5C 623.5,326.833 623.5,327.167 623.5,327.5C 624.369,331.374 626.703,334.041 630.5,335.5C 630.833,335.5 631.167,335.5 631.5,335.5C 631.215,337.288 631.548,338.955 632.5,340.5C 637.313,348.732 641.979,357.066 646.5,365.5C 647.57,372.044 649.57,378.044 652.5,383.5C 652.5,399.833 652.5,416.167 652.5,432.5C 617.636,432.823 582.802,432.49 548,431.5C 546.739,431.759 545.739,432.426 545,433.5C 544.5,469.832 544.333,506.165 544.5,542.5C 544.167,542.5 543.833,542.5 543.5,542.5C 508.764,541.83 473.931,541.163 439,540.5C 438.5,490.834 438.333,441.168 438.5,391.5C 439.753,386.201 441.253,380.867 443,375.5C 443.497,372.854 443.664,370.187 443.5,367.5C 445.257,366.708 446.591,365.375 447.5,363.5C 448.521,359.474 449.521,355.474 450.5,351.5C 453.986,347.899 457.486,344.232 461,340.5C 461.847,338.146 462.68,335.812 463.5,333.5C 463.5,332.833 463.5,332.167 463.5,331.5C 467.167,329.833 469.833,327.167 471.5,323.5C 472.945,321.937 474.611,320.604 476.5,319.5C 478.179,319.715 479.179,319.048 479.5,317.5C 485.431,315.416 490.764,312.249 495.5,308C 497.473,307.505 499.473,307.338 501.5,307.5C 501.5,306.167 501.5,304.833 501.5,303.5C 502.167,303.5 502.833,303.5 503.5,303.5C 506.049,303.613 508.382,302.946 510.5,301.5C 510.833,302.167 511.167,302.833 511.5,303.5C 518.491,300.226 525.825,298.059 533.5,297C 543.828,296.5 554.161,296.334 564.5,296.5 Z"/></g>
<g><path style="opacity:1" fill="#db3c6c" d="M 575.5,298.5 C 587.235,301.369 597.902,306.369 607.5,313.5C 606.127,313.657 604.793,313.49 603.5,313C 599.256,309.874 594.589,307.874 589.5,307C 585.758,303.796 581.425,301.629 576.5,300.5C 575.702,300.043 575.369,299.376 575.5,298.5 Z"/></g>
<g><path style="opacity:1" fill="#de4675" d="M 501.5,303.5 C 501.5,304.833 501.5,306.167 501.5,307.5C 499.473,307.338 497.473,307.505 495.5,308C 490.764,312.249 485.431,315.416 479.5,317.5C 479.5,317.167 479.5,316.833 479.5,316.5C 485.836,310.658 493.169,306.325 501.5,303.5 Z"/></g>
<g><path style="opacity:1" fill="#d98ba4" d="M 479.5,316.5 C 479.5,316.833 479.5,317.167 479.5,317.5C 479.179,319.048 478.179,319.715 476.5,319.5C 476.5,317.5 477.5,316.5 479.5,316.5 Z"/></g>
<g><path style="opacity:1" fill="#f08ab1" d="M 616.5,319.5 C 619.167,321.5 621.5,323.833 623.5,326.5C 620.167,325.167 617.833,322.833 616.5,319.5 Z"/></g>
<g><path style="opacity:1" fill="#df6c96" d="M 471.5,323.5 C 469.833,327.167 467.167,329.833 463.5,331.5C 465.833,328.5 468.5,325.833 471.5,323.5 Z"/></g>
<g><path style="opacity:1" fill="#dc4972" d="M 623.5,327.5 C 625.017,327.511 626.184,328.177 627,329.5C 628.421,331.405 629.588,333.405 630.5,335.5C 626.703,334.041 624.369,331.374 623.5,327.5 Z"/></g>
<g><path style="opacity:1" fill="#ed8aaf" d="M 460.5,335.5 C 459.66,337.853 458.326,339.853 456.5,341.5C 456.845,338.802 458.178,336.802 460.5,335.5 Z"/></g>
<g><path style="opacity:1" fill="#d32f63" d="M 463.5,333.5 C 462.68,335.812 461.847,338.146 461,340.5C 457.486,344.232 453.986,347.899 450.5,351.5C 451.268,347.405 453.268,344.072 456.5,341.5C 458.326,339.853 459.66,337.853 460.5,335.5C 461.5,334.833 462.5,334.167 463.5,333.5 Z"/></g>
<g><path style="opacity:1" fill="#dc3167" d="M 631.5,335.5 C 640.613,347.437 647.28,360.77 651.5,375.5C 651.833,378.167 652.167,380.833 652.5,383.5C 649.57,378.044 647.57,372.044 646.5,365.5C 641.979,357.066 637.313,348.732 632.5,340.5C 631.548,338.955 631.215,337.288 631.5,335.5 Z"/></g>
<g><path style="opacity:1" fill="#da3364" d="M 450.5,351.5 C 449.521,355.474 448.521,359.474 447.5,363.5C 446.591,365.375 445.257,366.708 443.5,367.5C 444.784,361.609 447.117,356.276 450.5,351.5 Z"/></g>
<g><path style="opacity:1" fill="#f2a2c3" d="M 442.5,367.5 C 442.435,370.428 441.768,373.095 440.5,375.5C 440.294,372.505 440.96,369.838 442.5,367.5 Z"/></g>
<g><path style="opacity:1" fill="#f9adcc" d="M 651.5,375.5 C 653.04,377.838 653.706,380.505 653.5,383.5C 653.167,383.5 652.833,383.5 652.5,383.5C 652.167,380.833 651.833,378.167 651.5,375.5 Z"/></g>
<g><path style="opacity:1" fill="#d22a62" d="M 442.5,367.5 C 442.833,367.5 443.167,367.5 443.5,367.5C 443.664,370.187 443.497,372.854 443,375.5C 441.253,380.867 439.753,386.201 438.5,391.5C 438.5,388.833 438.5,386.167 438.5,383.5C 439.255,380.947 439.922,378.28 440.5,375.5C 441.768,373.095 442.435,370.428 442.5,367.5 Z"/></g>
<g><path style="opacity:1" fill="#feeffe" d="M 436.5,394.5 C 436.5,443.167 436.5,491.833 436.5,540.5C 435.826,493.14 435.16,445.64 434.5,398C 434.808,396.541 435.475,395.374 436.5,394.5 Z"/></g>
<g><path style="opacity:1" fill="#fca6c9" d="M 438.5,383.5 C 438.5,386.167 438.5,388.833 438.5,391.5C 437.501,441.331 437.168,491.331 437.5,541.5C 436.833,541.5 436.5,541.167 436.5,540.5C 436.5,491.833 436.5,443.167 436.5,394.5C 436.251,390.542 436.918,386.876 438.5,383.5 Z"/></g>
<g><path style="opacity:1" fill="#f394bb" d="M 654.5,391.5 C 655.496,404.99 655.829,418.656 655.5,432.5C 655.5,432.833 655.5,433.167 655.5,433.5C 655.5,433.833 655.5,434.167 655.5,434.5C 654.833,434.5 654.167,434.5 653.5,434.5C 617.833,434.5 582.167,434.5 546.5,434.5C 582.329,433.502 618.329,433.168 654.5,433.5C 654.5,419.5 654.5,405.5 654.5,391.5 Z"/></g>
<g><path style="opacity:1" fill="#e5fefe" d="M 655.5,433.5 C 655.5,433.167 655.5,432.833 655.5,432.5C 707.501,432.333 759.501,432.5 811.5,433C 813.437,433.122 814.77,433.955 815.5,435.5C 810.141,435.33 804.808,434.83 799.5,434C 751.501,433.5 703.501,433.333 655.5,433.5 Z"/></g>
<g><path style="opacity:1" fill="#52c0e4" d="M 655.5,433.5 C 703.501,433.333 751.501,433.5 799.5,434C 804.808,434.83 810.141,435.33 815.5,435.5C 815.5,435.833 815.5,436.167 815.5,436.5C 762.174,435.574 708.841,435.241 655.5,435.5C 655.5,435.167 655.5,434.833 655.5,434.5C 655.5,434.167 655.5,433.833 655.5,433.5 Z"/></g>
<g><path style="opacity:1" fill="#fefefe" d="M 653.5,435.5 C 653.168,471.671 653.502,507.671 654.5,543.5C 690.5,543.5 726.5,543.5 762.5,543.5C 762.5,579.167 762.5,614.833 762.5,650.5C 725.778,650.647 689.111,650.481 652.5,650C 651.57,651.194 650.903,652.527 650.5,654C 651.812,670.386 652.479,686.886 652.5,703.5C 652.451,721.848 652.118,740.181 651.5,758.5C 616.427,758.174 581.427,758.507 546.5,759.5C 546.5,723.5 546.5,687.5 546.5,651.5C 510.671,650.502 474.671,650.168 438.5,650.5C 438.5,614.833 438.5,579.167 438.5,543.5C 474.671,543.832 510.671,543.498 546.5,542.5C 547.498,507.004 547.832,471.337 547.5,435.5C 582.833,435.5 618.167,435.5 653.5,435.5 Z"/></g>
<g><path style="opacity:1" fill="#0cb7fb" d="M 655.5,437.5 C 682.521,436.842 709.188,437.509 735.5,439.5C 730.07,439.161 724.736,439.661 719.5,441C 723.145,441.719 726.812,442.219 730.5,442.5C 730.716,444.681 729.883,446.347 728,447.5C 727.501,452.155 727.334,456.821 727.5,461.5C 727.5,461.833 727.5,462.167 727.5,462.5C 718.33,459.867 710.496,461.867 704,468.5C 702,473.167 702,477.833 704,482.5C 705.889,484.483 707.222,486.816 708,489.5C 710.04,491.353 712.373,492.686 715,493.5C 715.49,494.793 715.657,496.127 715.5,497.5C 717.167,497.5 718.833,497.5 720.5,497.5C 720.643,495.738 720.309,494.071 719.5,492.5C 716.243,489.083 712.743,485.75 709,482.5C 708.333,479.5 708.333,476.5 709,473.5C 710.438,472.1 711.271,470.433 711.5,468.5C 714.206,468.425 716.873,468.092 719.5,467.5C 719.5,469.167 719.5,470.833 719.5,472.5C 724.167,472.5 726.5,474.833 726.5,479.5C 729.5,479.5 732.5,479.5 735.5,479.5C 739.514,479.666 743.514,479.499 747.5,479C 745.957,477.122 744.124,475.622 742,474.5C 741.517,473.552 741.351,472.552 741.5,471.5C 742.873,471.657 744.207,471.49 745.5,471C 745.167,470.667 744.833,470.333 744.5,470C 747.368,468.145 749.868,468.645 752,471.5C 753.108,466.404 754.608,466.237 756.5,471C 762.242,471.411 765.908,468.911 767.5,463.5C 766.167,463.5 764.833,463.5 763.5,463.5C 763.748,457.956 763.081,452.623 761.5,447.5C 763.5,447.5 765.5,447.5 767.5,447.5C 767.238,446.022 767.571,444.689 768.5,443.5C 769.611,444.611 770.945,445.278 772.5,445.5C 774.253,443.3 776.586,442.133 779.5,442C 786.158,441.5 792.825,441.334 799.5,441.5C 799.5,442.833 799.5,444.167 799.5,445.5C 804.179,445.666 808.845,445.499 813.5,445C 815.107,443.951 815.773,442.451 815.5,440.5C 820.862,439.832 826.195,440.499 831.5,442.5C 831.5,443.5 831.5,444.5 831.5,445.5C 826.206,445.682 826.206,446.182 831.5,447C 835.989,447.163 840.323,447.33 844.5,447.5C 845.167,447.5 845.833,447.5 846.5,447.5C 863.11,456.449 876.443,468.782 886.5,484.5C 886.448,488.198 886.114,491.865 885.5,495.5C 884.5,495.5 883.5,495.5 882.5,495.5C 884.234,500.612 885.234,505.946 885.5,511.5C 886.5,511.5 887.5,511.5 888.5,511.5C 888.786,508.723 889.12,505.889 889.5,503C 885.68,499.658 885.68,496.491 889.5,493.5C 891.015,495.547 891.849,497.881 892,500.5C 892.759,502.063 893.926,503.063 895.5,503.5C 895.705,508.654 896.705,513.654 898.5,518.5C 897.369,519.604 896.535,519.271 896,517.5C 895.384,522.265 895.884,526.931 897.5,531.5C 895.972,536.338 896.305,541.005 898.5,545.5C 897.933,551.568 896.933,557.568 895.5,563.5C 896.769,567.382 897.435,571.382 897.5,575.5C 896.167,575.5 894.833,575.5 893.5,575.5C 893.662,577.527 893.495,579.527 893,581.5C 891.644,580.62 890.144,580.286 888.5,580.5C 888.741,577.001 887.908,576.668 886,579.5C 884.543,582.366 884.21,585.366 885,588.5C 885.333,587.833 885.667,587.167 886,586.5C 886.667,587.833 887.333,587.833 888,586.5C 889.137,590.37 887.637,592.203 883.5,592C 883.957,592.414 884.291,592.914 884.5,593.5C 883.478,594.354 882.645,595.354 882,596.5C 881.692,595.692 881.192,595.025 880.5,594.5C 879.726,598.792 879.726,603.125 880.5,607.5C 879.66,610.361 878.327,613.027 876.5,615.5C 873.167,618.167 869.833,620.833 866.5,623.5C 863.107,623.062 860.107,623.895 857.5,626C 859.901,626.805 859.734,627.638 857,628.5C 856.097,627.299 854.931,626.465 853.5,626C 854.741,624.513 854.241,623.68 852,623.5C 849.918,623.915 848.418,625.082 847.5,627C 847.905,627.945 848.572,628.612 849.5,629C 847.19,629.497 844.857,629.663 842.5,629.5C 842.723,633.416 841.056,635.916 837.5,637C 836.255,640.159 835.088,639.993 834,636.5C 833.075,637.047 832.242,637.713 831.5,638.5C 832.912,639.806 834.579,640.64 836.5,641C 832.442,641.767 828.442,641.6 824.5,640.5C 823.315,641.853 821.981,643.02 820.5,644C 820.833,644.333 821.167,644.667 821.5,645C 820.5,645.5 819.5,646 818.5,646.5C 812.732,646.069 807.232,644.736 802,642.5C 795.971,644.274 789.805,644.941 783.5,644.5C 783.5,645.5 783.5,646.5 783.5,647.5C 797.118,648.625 791.285,648.625 766,647.5C 766.444,612.855 766.611,578.189 766.5,543.5C 767.043,543.44 767.376,543.107 767.5,542.5C 765.577,541.692 763.577,541.192 761.5,541C 726.168,540.5 690.835,540.333 655.5,540.5C 655.5,506.167 655.5,471.833 655.5,437.5 Z"/></g>
<g><path style="opacity:1" fill="#c8f5fd" d="M 815.5,436.5 C 815.5,436.167 815.5,435.833 815.5,435.5C 820.713,434.756 825.379,435.923 829.5,439C 836.214,439.843 841.881,442.676 846.5,447.5C 845.833,447.5 845.167,447.5 844.5,447.5C 844.047,446.542 843.381,445.708 842.5,445C 833.811,441.323 824.811,438.49 815.5,436.5 Z"/></g>
<g><path style="opacity:1" fill="#26c2fb" d="M 735.5,439.5 C 740.288,439.682 745.121,439.682 750,439.5C 752.962,442.058 755.796,444.725 758.5,447.5C 760.415,451.325 761.748,455.325 762.5,459.5C 762.695,464.145 760.695,467.145 756.5,468.5C 756.579,467.07 756.246,465.736 755.5,464.5C 758.596,461.802 759.263,458.469 757.5,454.5C 756.016,452.926 754.349,451.593 752.5,450.5C 752.463,444.221 749.297,441.554 743,442.5C 739.759,442.997 736.592,443.664 733.5,444.5C 733.048,450.38 733.882,456.047 736,461.5C 737.067,462.191 738.234,462.691 739.5,463C 739.167,463.333 738.833,463.667 738.5,464C 742.167,466 745.833,466 749.5,464C 748.5,463.667 747.5,463.333 746.5,463C 749.562,461.939 752.062,460.106 754,457.5C 754.93,460.85 754.097,463.683 751.5,466C 742.54,468.898 734.54,467.398 727.5,461.5C 727.334,456.821 727.501,452.155 728,447.5C 729.883,446.347 730.716,444.681 730.5,442.5C 726.812,442.219 723.145,441.719 719.5,441C 724.736,439.661 730.07,439.161 735.5,439.5 Z"/></g>
<g><path style="opacity:1" fill="#ffe9f8" d="M 546.5,434.5 C 582.167,434.5 617.833,434.5 653.5,434.5C 653.5,434.833 653.5,435.167 653.5,435.5C 618.167,435.5 582.833,435.5 547.5,435.5C 547.832,471.337 547.498,507.004 546.5,542.5C 546.5,506.5 546.5,470.5 546.5,434.5 Z"/></g>
<g><path style="opacity:1" fill="#d11d5a" d="M 652.5,383.5 C 652.833,383.5 653.167,383.5 653.5,383.5C 653.194,386.385 653.527,389.052 654.5,391.5C 654.5,405.5 654.5,419.5 654.5,433.5C 618.329,433.168 582.329,433.502 546.5,434.5C 545.833,470.5 545.167,506.5 544.5,542.5C 544.333,506.165 544.5,469.832 545,433.5C 545.739,432.426 546.739,431.759 548,431.5C 582.802,432.49 617.636,432.823 652.5,432.5C 652.5,416.167 652.5,399.833 652.5,383.5 Z"/></g>
<g><path style="opacity:1" fill="#cafefe" d="M 653.5,434.5 C 654.167,434.5 654.833,434.5 655.5,434.5C 655.5,434.833 655.5,435.167 655.5,435.5C 654.502,471.329 654.168,507.329 654.5,543.5C 653.502,507.671 653.168,471.671 653.5,435.5C 653.5,435.167 653.5,434.833 653.5,434.5 Z"/></g>
<g><path style="opacity:1" fill="#26c1fc" d="M 727.5,462.5 C 728.979,467.815 732.146,471.815 737,474.5C 737.182,476.33 736.682,477.997 735.5,479.5C 732.5,479.5 729.5,479.5 726.5,479.5C 726.5,474.833 724.167,472.5 719.5,472.5C 719.5,470.833 719.5,469.167 719.5,467.5C 716.873,468.092 714.206,468.425 711.5,468.5C 711.271,470.433 710.438,472.1 709,473.5C 708.333,476.5 708.333,479.5 709,482.5C 712.743,485.75 716.243,489.083 719.5,492.5C 720.309,494.071 720.643,495.738 720.5,497.5C 718.833,497.5 717.167,497.5 715.5,497.5C 715.657,496.127 715.49,494.793 715,493.5C 712.373,492.686 710.04,491.353 708,489.5C 707.222,486.816 705.889,484.483 704,482.5C 702,477.833 702,473.167 704,468.5C 710.496,461.867 718.33,459.867 727.5,462.5 Z"/></g>
<g><path style="opacity:1" fill="#17b9f9" d="M 655.5,435.5 C 708.841,435.241 762.174,435.574 815.5,436.5C 824.811,438.49 833.811,441.323 842.5,445C 843.381,445.708 844.047,446.542 844.5,447.5C 840.323,447.33 835.989,447.163 831.5,447C 826.206,446.182 826.206,445.682 831.5,445.5C 831.5,444.5 831.5,443.5 831.5,442.5C 826.195,440.499 820.862,439.832 815.5,440.5C 815.773,442.451 815.107,443.951 813.5,445C 808.845,445.499 804.179,445.666 799.5,445.5C 799.5,444.167 799.5,442.833 799.5,441.5C 792.825,441.334 786.158,441.5 779.5,442C 776.586,442.133 774.253,443.3 772.5,445.5C 770.945,445.278 769.611,444.611 768.5,443.5C 767.571,444.689 767.238,446.022 767.5,447.5C 765.5,447.5 763.5,447.5 761.5,447.5C 763.081,452.623 763.748,457.956 763.5,463.5C 764.833,463.5 766.167,463.5 767.5,463.5C 765.908,468.911 762.242,471.411 756.5,471C 754.608,466.237 753.108,466.404 752,471.5C 749.868,468.645 747.368,468.145 744.5,470C 744.833,470.333 745.167,470.667 745.5,471C 744.207,471.49 742.873,471.657 741.5,471.5C 741.351,472.552 741.517,473.552 742,474.5C 744.124,475.622 745.957,477.122 747.5,479C 743.514,479.499 739.514,479.666 735.5,479.5C 736.682,477.997 737.182,476.33 737,474.5C 732.146,471.815 728.979,467.815 727.5,462.5C 727.5,462.167 727.5,461.833 727.5,461.5C 734.54,467.398 742.54,468.898 751.5,466C 754.097,463.683 754.93,460.85 754,457.5C 752.062,460.106 749.562,461.939 746.5,463C 747.5,463.333 748.5,463.667 749.5,464C 745.833,466 742.167,466 738.5,464C 738.833,463.667 739.167,463.333 739.5,463C 738.234,462.691 737.067,462.191 736,461.5C 733.882,456.047 733.048,450.38 733.5,444.5C 736.592,443.664 739.759,442.997 743,442.5C 749.297,441.554 752.463,444.221 752.5,450.5C 754.349,451.593 756.016,452.926 757.5,454.5C 759.263,458.469 758.596,461.802 755.5,464.5C 756.246,465.736 756.579,467.07 756.5,468.5C 760.695,467.145 762.695,464.145 762.5,459.5C 761.748,455.325 760.415,451.325 758.5,447.5C 755.796,444.725 752.962,442.058 750,439.5C 745.121,439.682 740.288,439.682 735.5,439.5C 709.188,437.509 682.521,436.842 655.5,437.5C 655.5,436.833 655.5,436.167 655.5,435.5 Z"/></g>
<g><path style="opacity:1" fill="#27c2fc" d="M 696.5,486.5 C 698.833,486.5 701.167,486.5 703.5,486.5C 703.215,488.288 703.548,489.955 704.5,491.5C 705.814,492.313 706.981,493.313 708,494.5C 708.667,499.833 708.667,505.167 708,510.5C 705.53,513.807 702.363,516.14 698.5,517.5C 696.734,517.566 695.734,516.732 695.5,515C 698.269,512.488 700.769,509.655 703,506.5C 704.969,493.806 699.802,489.473 687.5,493.5C 687.5,495.167 687.5,496.833 687.5,498.5C 682.849,499.174 681.349,501.841 683,506.5C 684.333,507.167 685.667,507.833 687,508.5C 687.813,511.821 689.313,514.821 691.5,517.5C 689.892,518.318 688.225,518.985 686.5,519.5C 682.041,514.087 677.207,509.087 672,504.5C 671.013,500.652 672.513,498.652 676.5,498.5C 676.5,497.5 676.5,496.5 676.5,495.5C 680.249,493.767 683.582,491.267 686.5,488C 690.025,487.821 693.359,487.321 696.5,486.5 Z"/></g>
<g><path style="opacity:1" fill="#29b9f1" d="M 886.5,484.5 C 890.821,490.145 893.821,496.479 895.5,503.5C 893.926,503.063 892.759,502.063 892,500.5C 891.849,497.881 891.015,495.547 889.5,493.5C 885.68,496.491 885.68,499.658 889.5,503C 889.12,505.889 888.786,508.723 888.5,511.5C 887.5,511.5 886.5,511.5 885.5,511.5C 885.234,505.946 884.234,500.612 882.5,495.5C 883.5,495.5 884.5,495.5 885.5,495.5C 886.114,491.865 886.448,488.198 886.5,484.5 Z"/></g>
<g><path style="opacity:1" fill="#96daf0" d="M 899.5,511.5 C 901.23,516.57 902.23,521.903 902.5,527.5C 900.77,522.43 899.77,517.097 899.5,511.5 Z"/></g>
<g><path style="opacity:1" fill="#d6f4f4" d="M 435.5,543.5 C 423.5,543.5 411.5,543.5 399.5,543.5C 392.407,543.341 385.407,544.008 378.5,545.5C 384.667,542.939 391.167,540.605 398,538.5C 409.693,540.267 421.526,541.1 433.5,541C 434.756,541.417 435.423,542.25 435.5,543.5 Z"/></g>
<g><path style="opacity:1" fill="#ce1e5e" d="M 438.5,391.5 C 438.333,441.168 438.5,490.834 439,540.5C 473.931,541.163 508.764,541.83 543.5,542.5C 508.167,542.5 472.833,542.5 437.5,542.5C 437.5,542.167 437.5,541.833 437.5,541.5C 437.168,491.331 437.501,441.331 438.5,391.5 Z"/></g>
<g><path style="opacity:1" fill="#26a9d9" d="M 655.5,540.5 C 690.835,540.333 726.168,540.5 761.5,541C 763.577,541.192 765.577,541.692 767.5,542.5C 767.376,543.107 767.043,543.44 766.5,543.5C 765.432,542.566 764.099,542.232 762.5,542.5C 726.484,543.16 690.818,542.494 655.5,540.5 Z"/></g>
<g><path style="opacity:1" fill="#fb88b5" d="M 546.5,434.5 C 546.5,470.5 546.5,506.5 546.5,542.5C 510.671,543.498 474.671,543.832 438.5,543.5C 438.167,543.5 437.833,543.5 437.5,543.5C 437.5,543.167 437.5,542.833 437.5,542.5C 472.833,542.5 508.167,542.5 543.5,542.5C 543.833,542.5 544.167,542.5 544.5,542.5C 545.167,506.5 545.833,470.5 546.5,434.5 Z"/></g>
<g><path style="opacity:1" fill="#7dd7ec" d="M 655.5,435.5 C 655.5,436.167 655.5,436.833 655.5,437.5C 655.5,471.833 655.5,506.167 655.5,540.5C 690.818,542.494 726.484,543.16 762.5,542.5C 762.5,542.833 762.5,543.167 762.5,543.5C 726.5,543.5 690.5,543.5 654.5,543.5C 654.168,507.329 654.502,471.329 655.5,435.5 Z"/></g>
<g><path style="opacity:1" fill="#0cb7fb" d="M 399.5,543.5 C 411.5,543.5 423.5,543.5 435.5,543.5C 435.013,580.253 435.513,616.92 437,653.5C 472.352,653.519 507.852,653.519 543.5,653.5C 543.328,654.492 543.662,655.158 544.5,655.5C 544.826,687.877 544.493,720.21 543.5,752.5C 530.167,752.833 516.833,753.167 503.5,753.5C 489.816,753.499 476.483,752.833 463.5,751.5C 466.68,751.824 467.847,750.49 467,747.5C 465.011,745.161 462.511,743.827 459.5,743.5C 459.67,742.178 459.337,741.011 458.5,740C 459.293,738.915 459.96,737.748 460.5,736.5C 458.604,735.534 456.604,735.201 454.5,735.5C 454.586,731.143 454.92,726.81 455.5,722.5C 450.011,722.629 447.345,725.462 447.5,731C 447.569,732.986 448.235,734.486 449.5,735.5C 447.69,740.956 447.024,746.29 447.5,751.5C 445.833,751.5 444.167,751.5 442.5,751.5C 442.882,746.223 441.882,741.223 439.5,736.5C 436.914,735.52 434.247,735.187 431.5,735.5C 431.5,738.167 431.5,740.833 431.5,743.5C 426.163,743.504 423.496,746.17 423.5,751.5C 420.753,751.187 418.086,751.52 415.5,752.5C 416.325,753.386 417.325,753.719 418.5,753.5C 418.5,754.5 418.5,755.5 418.5,756.5C 416.821,756.285 415.821,756.952 415.5,758.5C 409.974,758.179 404.64,758.512 399.5,759.5C 394.256,758.185 388.923,757.518 383.5,757.5C 375.781,754.159 367.781,750.993 359.5,748C 355.276,744.589 350.609,741.922 345.5,740C 344.257,738.846 343.257,737.512 342.5,736C 340.866,735.506 339.199,735.34 337.5,735.5C 336.167,735.5 335.5,734.833 335.5,733.5C 333.816,730.784 332.65,727.784 332,724.5C 330.509,722.996 328.676,722.163 326.5,722C 327.473,716.781 325.139,713.948 319.5,713.5C 317.576,711.991 316.409,709.991 316,707.5C 314.693,705.808 313.193,704.475 311.5,703.5C 307.266,699.032 304.599,693.699 303.5,687.5C 303.575,683.103 303.075,678.77 302,674.5C 301.764,672.881 300.931,671.881 299.5,671.5C 299.333,660.828 299.5,650.161 300,639.5C 301.809,632.264 302.976,624.931 303.5,617.5C 307.665,602.51 314.998,589.176 325.5,577.5C 326.577,576.295 327.91,575.628 329.5,575.5C 331.39,575.703 332.89,575.037 334,573.5C 335.11,575.037 336.61,575.703 338.5,575.5C 339.549,572.53 340.716,569.53 342,566.5C 342.818,571.794 343.318,571.794 343.5,566.5C 345.2,566.374 346.7,565.707 348,564.5C 349.885,565.992 350.885,567.992 351,570.5C 351.215,567.197 351.382,564.03 351.5,561C 350.584,560.722 349.918,560.222 349.5,559.5C 354.718,558.591 359.385,556.424 363.5,553C 374.527,550.598 385.86,548.264 397.5,546C 398.756,545.583 399.423,544.75 399.5,543.5 Z"/></g>
<g><path style="opacity:1" fill="#39b9eb" d="M 399.5,543.5 C 399.423,544.75 398.756,545.583 397.5,546C 385.86,548.264 374.527,550.598 363.5,553C 359.385,556.424 354.718,558.591 349.5,559.5C 351.331,557.224 353.664,555.391 356.5,554C 363.753,550.879 371.086,548.046 378.5,545.5C 385.407,544.008 392.407,543.341 399.5,543.5 Z"/></g>
<g><path style="opacity:1" fill="#d2fefe" d="M 437.5,543.5 C 437.833,543.5 438.167,543.5 438.5,543.5C 438.5,579.167 438.5,614.833 438.5,650.5C 474.671,650.168 510.671,650.502 546.5,651.5C 510.167,651.5 473.833,651.5 437.5,651.5C 437.5,615.5 437.5,579.5 437.5,543.5 Z"/></g>
<g><path style="opacity:1" fill="#b8f8fe" d="M 762.5,543.5 C 762.833,543.5 763.167,543.5 763.5,543.5C 763.333,579.168 763.5,614.835 764,650.5C 781.107,651.72 798.274,651.72 815.5,650.5C 813.708,651.309 811.708,651.809 809.5,652C 794.17,652.5 778.837,652.667 763.5,652.5C 763.5,651.833 763.167,651.5 762.5,651.5C 762.5,651.167 762.5,650.833 762.5,650.5C 762.5,614.833 762.5,579.167 762.5,543.5 Z"/></g>
<g><path style="opacity:1" fill="#48b8db" d="M 763.5,543.5 C 764.333,578.331 764.833,613.331 765,648.5C 765.75,649.126 766.584,649.626 767.5,650C 778.167,650.667 788.833,650.667 799.5,650C 809.624,648.986 819.624,647.486 829.5,645.5C 824.923,647.416 820.256,649.082 815.5,650.5C 798.274,651.72 781.107,651.72 764,650.5C 763.5,614.835 763.333,579.168 763.5,543.5 Z"/></g>
<g><path style="opacity:1" fill="#d8fbfe" d="M 902.5,527.5 C 903.828,532.456 904.495,537.789 904.5,543.5C 904.768,552.624 903.935,561.624 902,570.5C 901.263,572.596 900.097,574.263 898.5,575.5C 898.586,571.491 899.752,567.824 902,564.5C 903.682,552.175 903.848,539.842 902.5,527.5 Z"/></g>
<g><path style="opacity:1" fill="#2cbaf1" d="M 349.5,559.5 C 349.918,560.222 350.584,560.722 351.5,561C 351.382,564.03 351.215,567.197 351,570.5C 350.885,567.992 349.885,565.992 348,564.5C 346.7,565.707 345.2,566.374 343.5,566.5C 343.318,571.794 342.818,571.794 342,566.5C 340.716,569.53 339.549,572.53 338.5,575.5C 336.61,575.703 335.11,575.037 334,573.5C 332.89,575.037 331.39,575.703 329.5,575.5C 329.369,574.761 329.536,574.094 330,573.5C 334.185,570.312 338.018,566.812 341.5,563C 344.071,561.546 346.738,560.38 349.5,559.5 Z"/></g>
<g><path style="opacity:1" fill="#28b8f2" d="M 895.5,503.5 C 896.641,506.254 897.975,508.921 899.5,511.5C 899.77,517.097 900.77,522.43 902.5,527.5C 903.848,539.842 903.682,552.175 902,564.5C 899.752,567.824 898.586,571.491 898.5,575.5C 894.963,586.575 889.796,596.908 883,606.5C 882.329,607.252 881.496,607.586 880.5,607.5C 879.726,603.125 879.726,598.792 880.5,594.5C 881.192,595.025 881.692,595.692 882,596.5C 882.645,595.354 883.478,594.354 884.5,593.5C 884.291,592.914 883.957,592.414 883.5,592C 887.637,592.203 889.137,590.37 888,586.5C 887.333,587.833 886.667,587.833 886,586.5C 885.667,587.167 885.333,587.833 885,588.5C 884.21,585.366 884.543,582.366 886,579.5C 887.908,576.668 888.741,577.001 888.5,580.5C 890.144,580.286 891.644,580.62 893,581.5C 893.495,579.527 893.662,577.527 893.5,575.5C 894.833,575.5 896.167,575.5 897.5,575.5C 897.435,571.382 896.769,567.382 895.5,563.5C 896.933,557.568 897.933,551.568 898.5,545.5C 896.305,541.005 895.972,536.338 897.5,531.5C 895.884,526.931 895.384,522.265 896,517.5C 896.535,519.271 897.369,519.604 898.5,518.5C 896.705,513.654 895.705,508.654 895.5,503.5 Z"/></g>
<g><path style="opacity:1" fill="#d0f7fd" d="M 876.5,615.5 C 872.968,621.866 867.968,626.699 861.5,630C 857.939,634.616 853.272,637.449 847.5,638.5C 852.873,634.248 858.54,630.248 864.5,626.5C 865.425,625.643 866.092,624.643 866.5,623.5C 869.833,620.833 873.167,618.167 876.5,615.5 Z"/></g>
<g><path style="opacity:1" fill="#3ab2e0" d="M 303.5,617.5 C 302.976,624.931 301.809,632.264 300,639.5C 299.5,650.161 299.333,660.828 299.5,671.5C 297.728,661.057 297.062,650.39 297.5,639.5C 298.647,634.358 299.48,629.025 300,623.5C 300.586,620.981 301.753,618.981 303.5,617.5 Z"/></g>
<g><path style="opacity:1" fill="#17b6f3" d="M 762.5,543.5 C 762.5,543.167 762.5,542.833 762.5,542.5C 764.099,542.232 765.432,542.566 766.5,543.5C 766.611,578.189 766.444,612.855 766,647.5C 791.285,648.625 797.118,648.625 783.5,647.5C 783.5,646.5 783.5,645.5 783.5,644.5C 789.805,644.941 795.971,644.274 802,642.5C 807.232,644.736 812.732,646.069 818.5,646.5C 819.5,646 820.5,645.5 821.5,645C 821.167,644.667 820.833,644.333 820.5,644C 821.981,643.02 823.315,641.853 824.5,640.5C 828.442,641.6 832.442,641.767 836.5,641C 834.579,640.64 832.912,639.806 831.5,638.5C 832.242,637.713 833.075,637.047 834,636.5C 835.088,639.993 836.255,640.159 837.5,637C 841.056,635.916 842.723,633.416 842.5,629.5C 844.857,629.663 847.19,629.497 849.5,629C 848.572,628.612 847.905,627.945 847.5,627C 848.418,625.082 849.918,623.915 852,623.5C 854.241,623.68 854.741,624.513 853.5,626C 854.931,626.465 856.097,627.299 857,628.5C 859.734,627.638 859.901,626.805 857.5,626C 860.107,623.895 863.107,623.062 866.5,623.5C 866.092,624.643 865.425,625.643 864.5,626.5C 858.54,630.248 852.873,634.248 847.5,638.5C 841.743,641.376 835.743,643.709 829.5,645.5C 819.624,647.486 809.624,648.986 799.5,650C 788.833,650.667 778.167,650.667 767.5,650C 766.584,649.626 765.75,649.126 765,648.5C 764.833,613.331 764.333,578.331 763.5,543.5C 763.167,543.5 762.833,543.5 762.5,543.5 Z"/></g>
<g><path style="opacity:1" fill="#69c9e5" d="M 437.5,651.5 C 473.833,651.5 510.167,651.5 546.5,651.5C 546.5,687.5 546.5,723.5 546.5,759.5C 546.5,759.833 546.5,760.167 546.5,760.5C 546.167,760.5 545.833,760.5 545.5,760.5C 545.5,758.833 545.5,757.167 545.5,755.5C 545.832,721.996 545.498,688.662 544.5,655.5C 543.662,655.158 543.328,654.492 543.5,653.5C 508.167,652.833 472.833,652.167 437.5,651.5 Z"/></g>
<g><path style="opacity:1" fill="#3ab3de" d="M 435.5,543.5 C 436.167,543.5 436.833,543.5 437.5,543.5C 437.5,579.5 437.5,615.5 437.5,651.5C 472.833,652.167 508.167,652.833 543.5,653.5C 507.852,653.519 472.352,653.519 437,653.5C 435.513,616.92 435.013,580.253 435.5,543.5 Z"/></g>
<g><path style="opacity:1" fill="#e10350" d="M 655.5,653.5 C 655.5,653.167 655.5,652.833 655.5,652.5C 691.167,652.5 726.833,652.5 762.5,652.5C 762.5,701.5 762.5,750.5 762.5,799.5C 762.167,799.5 761.833,799.5 761.5,799.5C 761.5,750.833 761.5,702.167 761.5,653.5C 726.167,653.5 690.833,653.5 655.5,653.5 Z"/></g>
<g><path style="opacity:1" fill="#d8477b" d="M 655.5,652.5 C 655.5,652.167 655.5,651.833 655.5,651.5C 691.167,651.5 726.833,651.5 762.5,651.5C 763.167,651.5 763.5,651.833 763.5,652.5C 763.832,704.336 763.499,756.003 762.5,807.5C 762.5,804.833 762.5,802.167 762.5,799.5C 762.5,750.5 762.5,701.5 762.5,652.5C 726.833,652.5 691.167,652.5 655.5,652.5 Z"/></g>
<g><path style="opacity:1" fill="#fe075e" d="M 655.5,653.5 C 690.833,653.5 726.167,653.5 761.5,653.5C 761.5,702.167 761.5,750.833 761.5,799.5C 759.995,805.722 759.328,812.055 759.5,818.5C 759.007,820.806 758.674,823.139 758.5,825.5C 756.926,827.102 756.259,829.102 756.5,831.5C 754.853,834.795 753.186,838.128 751.5,841.5C 749.328,842.801 746.995,843.801 744.5,844.5C 744.5,843.5 744.5,842.5 744.5,841.5C 740.932,841.759 739.599,843.759 740.5,847.5C 742.359,847.461 743.692,848.294 744.5,850C 740.426,853.885 737.426,858.385 735.5,863.5C 734.448,863.351 733.448,863.517 732.5,864C 728.49,868.964 724.156,873.464 719.5,877.5C 719.179,879.048 718.179,879.715 716.5,879.5C 708.862,883.394 701.195,887.227 693.5,891C 692.748,891.671 692.414,892.504 692.5,893.5C 690.597,893.796 688.93,894.463 687.5,895.5C 681.678,894.933 676.345,895.933 671.5,898.5C 666.544,899.828 661.211,900.495 655.5,900.5C 649.789,900.495 644.456,899.828 639.5,898.5C 634.51,896.378 629.177,895.378 623.5,895.5C 623.167,895.5 622.833,895.5 622.5,895.5C 619.878,893.218 617.212,890.885 614.5,888.5C 613.914,888.709 613.414,889.043 613,889.5C 612.544,888.256 613.044,887.423 614.5,887C 612.699,886.683 612.366,886.016 613.5,885C 612.207,884.51 610.873,884.343 609.5,884.5C 609.227,882.549 609.893,881.049 611.5,880C 610.207,879.51 608.873,879.343 607.5,879.5C 607.5,881.5 607.5,883.5 607.5,885.5C 605.571,885.769 603.905,885.269 602.5,884C 603.5,883.667 604.5,883.333 605.5,883C 600.679,882.271 596.012,881.105 591.5,879.5C 589.587,875.587 586.587,872.587 582.5,870.5C 581.05,869.15 580.383,867.484 580.5,865.5C 578.833,865.5 577.167,865.5 575.5,865.5C 573.263,859.365 569.763,854.032 565,849.5C 563.023,844.561 560.69,839.894 558,835.5C 557.26,833.681 556.093,832.348 554.5,831.5C 555.091,827.036 553.758,823.369 550.5,820.5C 549.962,818.883 549.629,817.216 549.5,815.5C 547.782,797.551 547.115,779.551 547.5,761.5C 583.671,761.832 619.671,761.498 655.5,760.5C 655.5,724.833 655.5,689.167 655.5,653.5 Z"/></g>
<g><path style="opacity:1" fill="#b56285" d="M 655.5,651.5 C 655.5,651.833 655.5,652.167 655.5,652.5C 655.5,652.833 655.5,653.167 655.5,653.5C 655.5,689.167 655.5,724.833 655.5,760.5C 654.833,760.5 654.167,760.5 653.5,760.5C 654.161,724.069 654.827,687.736 655.5,651.5 Z"/></g>
<g><path style="opacity:1" fill="#d4f9fe" d="M 297.5,639.5 C 297.062,650.39 297.728,661.057 299.5,671.5C 299.616,674.86 299.949,678.193 300.5,681.5C 298.745,679.239 297.578,676.572 297,673.5C 296.174,661.992 296.341,650.659 297.5,639.5 Z"/></g>
<g><path style="opacity:1" fill="#50b7db" d="M 299.5,671.5 C 300.931,671.881 301.764,672.881 302,674.5C 303.075,678.77 303.575,683.103 303.5,687.5C 302.5,685.5 301.5,683.5 300.5,681.5C 299.949,678.193 299.616,674.86 299.5,671.5 Z"/></g>
<g><path style="opacity:1" fill="#28c3fc" d="M 495.5,674.5 C 500.565,676.764 505.898,677.764 511.5,677.5C 511.247,679.827 511.914,681.827 513.5,683.5C 511.353,684.835 509.353,684.669 507.5,683C 493.546,681.469 489.212,687.302 494.5,700.5C 495.59,701.727 496.924,702.56 498.5,703C 498.167,703.333 497.833,703.667 497.5,704C 501.152,704.499 504.818,704.665 508.5,704.5C 510.176,701.272 511.176,697.772 511.5,694C 511.167,692.167 510.833,690.333 510.5,688.5C 506.101,690.535 502.767,693.702 500.5,698C 498.866,698.494 497.199,698.66 495.5,698.5C 498.701,687.401 505.701,684.067 516.5,688.5C 517.095,690.44 517.428,692.44 517.5,694.5C 517.552,697.741 516.885,700.741 515.5,703.5C 514.167,703.5 512.833,703.5 511.5,703.5C 511.5,704.833 511.5,706.167 511.5,707.5C 504.543,708.132 497.877,707.132 491.5,704.5C 483.824,695.242 484.824,687.242 494.5,680.5C 495.466,678.604 495.799,676.604 495.5,674.5 Z"/></g>
<g><path style="opacity:1" fill="#24bffa" d="M 471.5,702.5 C 476.915,702.51 482.248,703.177 487.5,704.5C 489.173,706.523 489.84,708.856 489.5,711.5C 490.5,711.5 491.5,711.5 492.5,711.5C 493.484,726.516 486.484,733.516 471.5,732.5C 471.5,731.5 471.5,730.5 471.5,729.5C 468.735,729.202 466.235,728.202 464,726.5C 462.065,720.157 462.065,713.823 464,707.5C 465.889,704.754 468.389,703.087 471.5,702.5 Z"/></g>
<g><path style="opacity:1" fill="#36b8e8" d="M 311.5,703.5 C 313.193,704.475 314.693,705.808 316,707.5C 316.409,709.991 317.576,711.991 319.5,713.5C 325.139,713.948 327.473,716.781 326.5,722C 328.676,722.163 330.509,722.996 332,724.5C 332.65,727.784 333.816,730.784 335.5,733.5C 333.745,732.928 332.078,732.094 330.5,731C 324.28,723.805 318.447,716.305 313,708.5C 311.991,706.975 311.491,705.308 311.5,703.5 Z"/></g>
<g><path style="opacity:1" fill="#25c2fb" d="M 463.5,751.5 C 460.753,751.813 458.086,751.48 455.5,750.5C 456.09,749.201 457.09,748.368 458.5,748C 457.289,746.887 457.289,745.72 458.5,744.5C 454.414,742.415 451.414,739.415 449.5,735.5C 448.235,734.486 447.569,732.986 447.5,731C 447.345,725.462 450.011,722.629 455.5,722.5C 454.92,726.81 454.586,731.143 454.5,735.5C 456.604,735.201 458.604,735.534 460.5,736.5C 459.96,737.748 459.293,738.915 458.5,740C 459.337,741.011 459.67,742.178 459.5,743.5C 462.511,743.827 465.011,745.161 467,747.5C 467.847,750.49 466.68,751.824 463.5,751.5 Z"/></g>
<g><path style="opacity:1" fill="#21bffa" d="M 447.5,751.5 C 447.081,754.325 448.081,756.491 450.5,758C 438.838,758.5 427.171,758.667 415.5,758.5C 415.821,756.952 416.821,756.285 418.5,756.5C 418.5,755.5 418.5,754.5 418.5,753.5C 417.325,753.719 416.325,753.386 415.5,752.5C 418.086,751.52 420.753,751.187 423.5,751.5C 423.496,746.17 426.163,743.504 431.5,743.5C 431.5,740.833 431.5,738.167 431.5,735.5C 434.247,735.187 436.914,735.52 439.5,736.5C 441.882,741.223 442.882,746.223 442.5,751.5C 444.167,751.5 445.833,751.5 447.5,751.5 Z"/></g>
<g><path style="opacity:1" fill="#49b9e0" d="M 337.5,735.5 C 339.199,735.34 340.866,735.506 342.5,736C 343.257,737.512 344.257,738.846 345.5,740C 350.609,741.922 355.276,744.589 359.5,748C 367.781,750.993 375.781,754.159 383.5,757.5C 381.833,757.5 380.167,757.5 378.5,757.5C 369.773,755.205 361.44,752.038 353.5,748C 348.672,744.419 343.672,741.085 338.5,738C 337.748,737.329 337.414,736.496 337.5,735.5 Z"/></g>
<g><path style="opacity:1" fill="#17b5f3" d="M 544.5,655.5 C 545.498,688.662 545.832,721.996 545.5,755.5C 543.824,756.183 543.157,757.517 543.5,759.5C 495.5,759.5 447.5,759.5 399.5,759.5C 404.64,758.512 409.974,758.179 415.5,758.5C 427.171,758.667 438.838,758.5 450.5,758C 448.081,756.491 447.081,754.325 447.5,751.5C 447.024,746.29 447.69,740.956 449.5,735.5C 451.414,739.415 454.414,742.415 458.5,744.5C 457.289,745.72 457.289,746.887 458.5,748C 457.09,748.368 456.09,749.201 455.5,750.5C 458.086,751.48 460.753,751.813 463.5,751.5C 476.483,752.833 489.816,753.499 503.5,753.5C 516.833,753.167 530.167,752.833 543.5,752.5C 544.493,720.21 544.826,687.877 544.5,655.5 Z"/></g>
<g><path style="opacity:1" fill="#ffe2f4" d="M 762.5,650.5 C 762.5,650.833 762.5,651.167 762.5,651.5C 726.833,651.5 691.167,651.5 655.5,651.5C 654.827,687.736 654.161,724.069 653.5,760.5C 617.833,760.5 582.167,760.5 546.5,760.5C 546.5,760.167 546.5,759.833 546.5,759.5C 581.427,758.507 616.427,758.174 651.5,758.5C 652.118,740.181 652.451,721.848 652.5,703.5C 652.479,686.886 651.812,670.386 650.5,654C 650.903,652.527 651.57,651.194 652.5,650C 689.111,650.481 725.778,650.647 762.5,650.5 Z"/></g>
<g><path style="opacity:1" fill="#4bb4d3" d="M 545.5,755.5 C 545.5,757.167 545.5,758.833 545.5,760.5C 495.166,760.667 444.832,760.5 394.5,760C 390.535,759.892 386.868,759.059 383.5,757.5C 388.923,757.518 394.256,758.185 399.5,759.5C 447.5,759.5 495.5,759.5 543.5,759.5C 543.157,757.517 543.824,756.183 545.5,755.5 Z"/></g>
<g><path style="opacity:1" fill="#c6fcfe" d="M 378.5,757.5 C 380.167,757.5 381.833,757.5 383.5,757.5C 386.868,759.059 390.535,759.892 394.5,760C 444.832,760.5 495.166,760.667 545.5,760.5C 545.5,760.833 545.5,761.167 545.5,761.5C 493.499,761.667 441.499,761.5 389.5,761C 386.123,760.548 382.789,759.882 379.5,759C 378.944,758.617 378.611,758.117 378.5,757.5 Z"/></g>
<g><path style="opacity:1" fill="#d04173" d="M 545.5,760.5 C 545.833,760.5 546.167,760.5 546.5,760.5C 582.167,760.5 617.833,760.5 653.5,760.5C 654.167,760.5 654.833,760.5 655.5,760.5C 619.671,761.498 583.671,761.832 547.5,761.5C 547.115,779.551 547.782,797.551 549.5,815.5C 549.167,815.5 548.833,815.5 548.5,815.5C 547.353,810.358 546.52,805.025 546,799.5C 545.5,787.171 545.333,774.838 545.5,762.5C 545.5,762.167 545.5,761.833 545.5,761.5C 545.5,761.167 545.5,760.833 545.5,760.5 Z"/></g>
<g><path style="opacity:1" fill="#d93569" d="M 761.5,799.5 C 761.833,799.5 762.167,799.5 762.5,799.5C 762.5,802.167 762.5,804.833 762.5,807.5C 762.258,811.479 761.258,815.146 759.5,818.5C 759.328,812.055 759.995,805.722 761.5,799.5 Z"/></g>
<g><path style="opacity:1" fill="#fdebf8" d="M 545.5,762.5 C 545.333,774.838 545.5,787.171 546,799.5C 546.52,805.025 547.353,810.358 548.5,815.5C 548.833,818.167 549.167,820.833 549.5,823.5C 548.4,821.723 547.566,819.723 547,817.5C 546.667,818.167 546.333,818.833 546,819.5C 544.287,800.358 544.12,781.358 545.5,762.5 Z"/></g>
<g><path style="opacity:1" fill="#ef95b7" d="M 548.5,815.5 C 548.833,815.5 549.167,815.5 549.5,815.5C 549.629,817.216 549.962,818.883 550.5,820.5C 550.629,822.216 550.962,823.883 551.5,825.5C 550.5,825.167 549.833,824.5 549.5,823.5C 549.167,820.833 548.833,818.167 548.5,815.5 Z"/></g>
<g><path style="opacity:1" fill="#d23769" d="M 550.5,820.5 C 553.758,823.369 555.091,827.036 554.5,831.5C 552.621,830.105 551.621,828.105 551.5,825.5C 550.962,823.883 550.629,822.216 550.5,820.5 Z"/></g>
<g><path style="opacity:1" fill="#f8bdd7" d="M 758.5,825.5 C 758.741,827.898 758.074,829.898 756.5,831.5C 756.259,829.102 756.926,827.102 758.5,825.5 Z"/></g>
<g><path style="opacity:1" fill="#e82563" d="M 751.5,841.5 C 751.5,841.833 751.5,842.167 751.5,842.5C 746.762,848.569 742.429,854.902 738.5,861.5C 737.778,862.551 736.778,863.218 735.5,863.5C 737.426,858.385 740.426,853.885 744.5,850C 743.692,848.294 742.359,847.461 740.5,847.5C 739.599,843.759 740.932,841.759 744.5,841.5C 744.5,842.5 744.5,843.5 744.5,844.5C 746.995,843.801 749.328,842.801 751.5,841.5 Z"/></g>
<g><path style="opacity:1" fill="#d73163" d="M 554.5,831.5 C 556.093,832.348 557.26,833.681 558,835.5C 560.69,839.894 563.023,844.561 565,849.5C 569.763,854.032 573.263,859.365 575.5,865.5C 570.014,859.833 565.014,853.833 560.5,847.5C 560.047,843.973 558.547,840.973 556,838.5C 555.338,836.187 554.838,833.854 554.5,831.5 Z"/></g>
<g><path style="opacity:1" fill="#fcdceb" d="M 751.5,842.5 C 750.987,845.912 750.153,849.245 749,852.5C 745.333,855.336 741.833,858.336 738.5,861.5C 742.429,854.902 746.762,848.569 751.5,842.5 Z"/></g>
<g><path style="opacity:1" fill="#fedff0" d="M 560.5,847.5 C 565.014,853.833 570.014,859.833 575.5,865.5C 575.5,865.833 575.5,866.167 575.5,866.5C 575.5,866.833 575.5,867.167 575.5,867.5C 571.547,866.985 569.381,864.652 569,860.5C 566.402,859.32 564.736,857.32 564,854.5C 563.667,854.833 563.333,855.167 563,855.5C 561.39,853.061 560.556,850.394 560.5,847.5 Z"/></g>
<g><path style="opacity:1" fill="#ec80a8" d="M 575.5,867.5 C 575.5,867.167 575.5,866.833 575.5,866.5C 578.167,867.167 579.833,868.833 580.5,871.5C 578.833,870.167 577.167,868.833 575.5,867.5 Z"/></g>
<g><path style="opacity:1" fill="#d13c6d" d="M 735.5,863.5 C 733.868,866.188 731.868,868.688 729.5,871C 726.536,873.81 723.202,875.976 719.5,877.5C 724.156,873.464 728.49,868.964 732.5,864C 733.448,863.517 734.448,863.351 735.5,863.5 Z"/></g>
<g><path style="opacity:1" fill="#dc3066" d="M 575.5,866.5 C 575.5,866.167 575.5,865.833 575.5,865.5C 577.167,865.5 578.833,865.5 580.5,865.5C 580.383,867.484 581.05,869.15 582.5,870.5C 586.587,872.587 589.587,875.587 591.5,879.5C 587.292,877.632 583.625,874.965 580.5,871.5C 579.833,868.833 578.167,867.167 575.5,866.5 Z"/></g>
<g><path style="opacity:1" fill="#ee2865" d="M 591.5,879.5 C 596.012,881.105 600.679,882.271 605.5,883C 604.5,883.333 603.5,883.667 602.5,884C 603.905,885.269 605.571,885.769 607.5,885.5C 607.5,883.5 607.5,881.5 607.5,879.5C 608.873,879.343 610.207,879.51 611.5,880C 609.893,881.049 609.227,882.549 609.5,884.5C 610.873,884.343 612.207,884.51 613.5,885C 612.366,886.016 612.699,886.683 614.5,887C 613.044,887.423 612.544,888.256 613,889.5C 613.414,889.043 613.914,888.709 614.5,888.5C 617.212,890.885 619.878,893.218 622.5,895.5C 619.673,894.892 617.007,893.892 614.5,892.5C 613.365,890.787 611.698,890.12 609.5,890.5C 605.729,888.374 601.729,886.541 597.5,885C 594.957,883.618 592.957,881.785 591.5,879.5 Z"/></g>
<g><path style="opacity:1" fill="#da2962" d="M 716.5,879.5 C 709.327,885.46 701.327,890.127 692.5,893.5C 692.414,892.504 692.748,891.671 693.5,891C 701.195,887.227 708.862,883.394 716.5,879.5 Z"/></g>
<g><path style="opacity:1" fill="#ea6f99" d="M 609.5,890.5 C 611.698,890.12 613.365,890.787 614.5,892.5C 612.302,892.88 610.635,892.213 609.5,890.5 Z"/></g>
<g><path style="opacity:1" fill="#d13f6a" d="M 623.5,895.5 C 629.177,895.378 634.51,896.378 639.5,898.5C 633.784,898.773 628.451,897.773 623.5,895.5 Z"/></g>
<g><path style="opacity:1" fill="#df6187" d="M 687.5,895.5 C 682.518,897.739 677.184,898.739 671.5,898.5C 676.345,895.933 681.678,894.933 687.5,895.5 Z"/></g>
</svg>
